<svg width="28" height="30" viewBox="0 0 28 30" fill="none" xmlns="http://www.w3.org/2000/svg">
<g clip-path="url(#clip0_1221_882)" filter="url(#filter0_d_1221_882)">
<path d="M18.218 0.147461H14.6018V14.7634C14.6018 16.505 13.2109 17.9355 11.4801 17.9355C9.74925 17.9355 8.3584 16.505 8.3584 14.7634C8.3584 13.0531 9.71834 11.6537 11.3874 11.5915V7.92195C7.70934 7.98412 4.74219 11.0006 4.74219 14.7634C4.74219 18.5574 7.77115 21.605 11.511 21.605C15.2508 21.605 18.2798 18.5263 18.2798 14.7634V7.26886C19.6397 8.26402 21.3087 8.85487 23.0705 8.88599V5.21642C20.3506 5.12313 18.218 2.88407 18.218 0.147461Z" fill="white"/>
</g>
<defs>
<filter id="filter0_d_1221_882" x="-1.04688" y="0.147461" width="29.457" height="29.458" filterUnits="userSpaceOnUse" color-interpolation-filters="sRGB">
<feFlood flood-opacity="0" result="BackgroundImageFix"/>
<feColorMatrix in="SourceAlpha" type="matrix" values="0 0 0 0 0 0 0 0 0 0 0 0 0 0 0 0 0 0 127 0" result="hardAlpha"/>
<feOffset dy="4"/>
<feGaussianBlur stdDeviation="2"/>
<feComposite in2="hardAlpha" operator="out"/>
<feColorMatrix type="matrix" values="0 0 0 0 0 0 0 0 0 0 0 0 0 0 0 0 0 0 0.25 0"/>
<feBlend mode="normal" in2="BackgroundImageFix" result="effect1_dropShadow_1221_882"/>
<feBlend mode="normal" in="SourceGraphic" in2="effect1_dropShadow_1221_882" result="shape"/>
</filter>
<clipPath id="clip0_1221_882">
<rect width="21.4575" height="21.4575" fill="white" transform="translate(2.95312 0.147461)"/>
</clipPath>
</defs>
</svg>
