<svg width="22" height="22" viewBox="0 0 22 22" fill="none" xmlns="http://www.w3.org/2000/svg">
<path d="M10.7858 0.147461C4.87871 0.147461 0.0898438 4.9362 0.0898438 10.8433C0.0898438 16.7506 4.87871 21.539 10.7858 21.539C16.6935 21.539 21.4819 16.7506 21.4819 10.8433C21.4819 4.93658 16.6935 0.147972 10.7857 0.147972L10.7858 0.147461ZM15.6909 15.5739C15.4993 15.8881 15.088 15.9877 14.7738 15.7949C12.2625 14.2609 9.10112 13.9135 5.37798 14.7641C5.0192 14.8459 4.66158 14.6211 4.57984 14.2622C4.49771 13.9033 4.72161 13.5457 5.08128 13.4639C9.15566 12.5327 12.6506 12.9339 15.4699 14.6569C15.7841 14.8497 15.8837 15.2597 15.6909 15.5739ZM17.0001 12.6612C16.7587 13.0539 16.2452 13.1778 15.8531 12.9364C12.978 11.1688 8.59546 10.6571 5.19482 11.6893C4.7538 11.8225 4.28799 11.574 4.15413 11.1337C4.0213 10.6927 4.26998 10.2278 4.71024 10.0937C8.5947 8.91504 13.4238 9.48596 16.7254 11.5149C17.1176 11.7562 17.2414 12.2696 17.0001 12.6612ZM17.1124 9.6285C13.6652 7.58097 7.97766 7.3927 4.68636 8.39163C4.15784 8.55192 3.59892 8.25356 3.43875 7.72504C3.27859 7.19627 3.5767 6.63773 4.1056 6.47705C7.88379 5.3301 14.1646 5.5517 18.1335 7.90781C18.6099 8.18995 18.7657 8.80392 18.4834 9.27867C18.2024 9.75406 17.5868 9.91077 17.113 9.6285H17.1124Z" fill="white"/>
</svg>
