<svg width="22" height="22" viewBox="0 0 22 22" fill="none" xmlns="http://www.w3.org/2000/svg">
<g clip-path="url(#clip0_1221_881)">
<path d="M10.7503 2.07948C13.6169 2.07948 13.9563 2.09205 15.0837 2.14234C16.1314 2.18844 16.6972 2.36446 17.0744 2.51114C17.5731 2.70393 17.9335 2.93862 18.3065 3.31161C18.6837 3.68879 18.9142 4.04502 19.107 4.54374C19.2537 4.92093 19.4297 5.49089 19.4758 6.53443C19.5261 7.66598 19.5386 8.00545 19.5386 10.8679C19.5386 13.7344 19.5261 14.0739 19.4758 15.2013C19.4297 16.249 19.2537 16.8148 19.107 17.192C18.9142 17.6907 18.6795 18.0511 18.3065 18.4241C17.9293 18.8013 17.5731 19.0318 17.0744 19.2246C16.6972 19.3712 16.1272 19.5473 15.0837 19.5934C13.9521 19.6437 13.6127 19.6562 10.7503 19.6562C7.88366 19.6562 7.5442 19.6437 6.41684 19.5934C5.36911 19.5473 4.80333 19.3712 4.42615 19.2246C3.92743 19.0318 3.56701 18.7971 3.19402 18.4241C2.81683 18.0469 2.58633 17.6907 2.39355 17.192C2.24687 16.8148 2.07085 16.2448 2.02475 15.2013C1.97446 14.0697 1.96188 13.7303 1.96188 10.8679C1.96188 8.00126 1.97446 7.66179 2.02475 6.53443C2.07085 5.4867 2.24687 4.92093 2.39355 4.54374C2.58633 4.04502 2.82102 3.6846 3.19402 3.31161C3.5712 2.93443 3.92743 2.70393 4.42615 2.51114C4.80333 2.36446 5.3733 2.18844 6.41684 2.14234C7.5442 2.09205 7.88366 2.07948 10.7503 2.07948ZM10.7503 0.147461C7.83756 0.147461 7.47295 0.160034 6.32883 0.210325C5.1889 0.260616 4.40519 0.445017 3.72626 0.709045C3.018 0.985646 2.41869 1.35026 1.82358 1.94956C1.22428 2.54467 0.85967 3.14397 0.583069 3.84805C0.31904 4.53117 0.134639 5.31068 0.0843483 6.45062C0.0340572 7.59893 0.0214844 7.96354 0.0214844 10.8762C0.0214844 13.7889 0.0340572 14.1535 0.0843483 15.2977C0.134639 16.4376 0.31904 17.2213 0.583069 17.9002C0.85967 18.6085 1.22428 19.2078 1.82358 19.8029C2.41869 20.398 3.018 20.7668 3.72207 21.0392C4.40519 21.3033 5.18471 21.4877 6.32464 21.538C7.46876 21.5882 7.83337 21.6008 10.7461 21.6008C13.6588 21.6008 14.0234 21.5882 15.1675 21.538C16.3074 21.4877 17.0911 21.3033 17.7701 21.0392C18.4741 20.7668 19.0734 20.398 19.6686 19.8029C20.2637 19.2078 20.6325 18.6085 20.9049 17.9044C21.1689 17.2213 21.3533 16.4418 21.4036 15.3019C21.4539 14.1577 21.4665 13.7931 21.4665 10.8804C21.4665 7.96773 21.4539 7.60312 21.4036 6.459C21.3533 5.31907 21.1689 4.53536 20.9049 3.85643C20.6408 3.14397 20.2762 2.54467 19.6769 1.94956C19.0818 1.35445 18.4825 0.985646 17.7784 0.713236C17.0953 0.449208 16.3158 0.264807 15.1759 0.214516C14.0276 0.160034 13.663 0.147461 10.7503 0.147461Z" fill="white"/>
<path d="M10.7494 5.36523C7.70674 5.36523 5.23828 7.83369 5.23828 10.8763C5.23828 13.9189 7.70674 16.3874 10.7494 16.3874C13.792 16.3874 16.2604 13.9189 16.2604 10.8763C16.2604 7.83369 13.792 5.36523 10.7494 5.36523ZM10.7494 14.4512C8.77542 14.4512 7.17449 12.8502 7.17449 10.8763C7.17449 8.90238 8.77542 7.30144 10.7494 7.30144C12.7233 7.30144 14.3242 8.90238 14.3242 10.8763C14.3242 12.8502 12.7233 14.4512 10.7494 14.4512Z" fill="white"/>
<path d="M17.7666 5.14697C17.7666 5.85943 17.1882 6.43358 16.48 6.43358C15.7675 6.43358 15.1934 5.85524 15.1934 5.14697C15.1934 4.43451 15.7717 3.86035 16.48 3.86035C17.1882 3.86035 17.7666 4.4387 17.7666 5.14697Z" fill="white"/>
</g>
<defs>
<clipPath id="clip0_1221_881">
<rect width="21.4575" height="21.4575" fill="white" transform="translate(0.0214844 0.147461)"/>
</clipPath>
</defs>
</svg>
