<svg width="623" height="183" viewBox="0 0 623 183" fill="none" xmlns="http://www.w3.org/2000/svg">
<rect x="299.689" y="0.836914" width="23.7171" height="181.269" rx="11.8585" fill="url(#paint0_linear_1221_858)"/>
<rect x="374.371" y="31.3311" width="23.7171" height="120.281" rx="11.8585" fill="url(#paint1_linear_1221_858)"/>
<rect x="225.008" y="31.3311" width="23.7171" height="120.281" rx="11.8585" fill="url(#paint2_linear_1221_858)"/>
<rect x="0.5625" y="77.3545" width="23.7171" height="28.235" rx="11.8585" fill="url(#paint3_linear_1221_858)"/>
<rect x="150.324" y="31.3311" width="23.7171" height="120.281" rx="11.8585" fill="url(#paint4_linear_1221_858)"/>
<rect x="50.4824" y="51.7314" width="23.7171" height="79.4807" rx="11.8585" fill="url(#paint5_linear_1221_858)"/>
<rect x="100.404" y="64.2881" width="23.7171" height="54.3665" rx="11.8585" fill="url(#paint6_linear_1221_858)"/>
<rect width="23.7171" height="28.235" rx="11.8585" transform="matrix(-1 0 0 1 622.533 77.3535)" fill="url(#paint7_linear_1221_858)"/>
<rect width="23.7171" height="120.281" rx="11.8585" transform="matrix(-1 0 0 1 472.771 31.3311)" fill="url(#paint8_linear_1221_858)"/>
<rect width="23.7171" height="79.4807" rx="11.8585" transform="matrix(-1 0 0 1 572.613 51.7305)" fill="url(#paint9_linear_1221_858)"/>
<rect width="23.7171" height="54.3665" rx="11.8585" transform="matrix(-1 0 0 1 522.691 64.2881)" fill="url(#paint10_linear_1221_858)"/>
<defs>
<linearGradient id="paint0_linear_1221_858" x1="311.548" y1="0.836914" x2="311.548" y2="182.106" gradientUnits="userSpaceOnUse">
<stop offset="0.302639" stop-color="#E950A0"/>
<stop offset="0.731316" stop-color="#FFDE59"/>
</linearGradient>
<linearGradient id="paint1_linear_1221_858" x1="386.23" y1="31.3311" x2="386.23" y2="151.612" gradientUnits="userSpaceOnUse">
<stop offset="0.302639" stop-color="#E950A0"/>
<stop offset="0.731316" stop-color="#FFDE59"/>
</linearGradient>
<linearGradient id="paint2_linear_1221_858" x1="236.866" y1="31.3311" x2="236.866" y2="151.612" gradientUnits="userSpaceOnUse">
<stop offset="0.302639" stop-color="#E950A0"/>
<stop offset="0.731316" stop-color="#FFDE59"/>
</linearGradient>
<linearGradient id="paint3_linear_1221_858" x1="12.421" y1="77.3545" x2="12.421" y2="105.589" gradientUnits="userSpaceOnUse">
<stop offset="0.302639" stop-color="#E950A0"/>
<stop offset="0.731316" stop-color="#FFDE59"/>
</linearGradient>
<linearGradient id="paint4_linear_1221_858" x1="162.183" y1="31.3311" x2="162.183" y2="151.612" gradientUnits="userSpaceOnUse">
<stop offset="0.302639" stop-color="#E950A0"/>
<stop offset="0.731316" stop-color="#FFDE59"/>
</linearGradient>
<linearGradient id="paint5_linear_1221_858" x1="62.3409" y1="51.7314" x2="62.3409" y2="131.212" gradientUnits="userSpaceOnUse">
<stop offset="0.302639" stop-color="#E950A0"/>
<stop offset="0.731316" stop-color="#FFDE59"/>
</linearGradient>
<linearGradient id="paint6_linear_1221_858" x1="112.263" y1="64.2881" x2="112.263" y2="118.655" gradientUnits="userSpaceOnUse">
<stop offset="0.302639" stop-color="#E950A0"/>
<stop offset="0.731316" stop-color="#FFDE59"/>
</linearGradient>
<linearGradient id="paint7_linear_1221_858" x1="11.8585" y1="0" x2="11.8585" y2="28.235" gradientUnits="userSpaceOnUse">
<stop offset="0.302639" stop-color="#E950A0"/>
<stop offset="0.731316" stop-color="#FFDE59"/>
</linearGradient>
<linearGradient id="paint8_linear_1221_858" x1="11.8585" y1="0" x2="11.8585" y2="120.281" gradientUnits="userSpaceOnUse">
<stop offset="0.302639" stop-color="#E950A0"/>
<stop offset="0.731316" stop-color="#FFDE59"/>
</linearGradient>
<linearGradient id="paint9_linear_1221_858" x1="11.8585" y1="0" x2="11.8585" y2="79.4807" gradientUnits="userSpaceOnUse">
<stop offset="0.302639" stop-color="#E950A0"/>
<stop offset="0.731316" stop-color="#FFDE59"/>
</linearGradient>
<linearGradient id="paint10_linear_1221_858" x1="11.8585" y1="0" x2="11.8585" y2="54.3665" gradientUnits="userSpaceOnUse">
<stop offset="0.302639" stop-color="#E950A0"/>
<stop offset="0.731316" stop-color="#FFDE59"/>
</linearGradient>
</defs>
</svg>
