<svg width="1099" height="757" viewBox="0 0 1099 757" fill="none" xmlns="http://www.w3.org/2000/svg">
<path fill-rule="evenodd" clip-rule="evenodd" d="M842.826 122.779C844.015 122.744 845.208 122.726 846.405 122.726C916.046 122.726 972.5 182.706 972.5 256.694C972.5 257.021 972.499 257.347 972.497 257.673C972.499 257.673 972.501 257.673 972.504 257.673C972.502 257.347 972.5 257.021 972.5 256.694C972.5 182.762 1028.87 122.817 1098.44 122.726L1098.44 122.726C1032.65 122.64 978.67 69.0329 972.994 0.687502C972.665 0.681539 972.337 0.676817 972.008 0.67334C966.333 69.0802 912.266 122.726 846.405 122.726C845.21 122.726 844.019 122.708 842.831 122.673C842.83 122.708 842.828 122.744 842.826 122.779Z" fill="url(#paint0_linear_1052_307)"/>
<mask id="path-2-inside-1_1052_307" fill="white">
<path fill-rule="evenodd" clip-rule="evenodd" d="M822.826 122.779C824.015 122.744 825.208 122.726 826.405 122.726C896.046 122.726 952.5 182.706 952.5 256.694C952.5 257.021 952.499 257.347 952.497 257.673C952.499 257.673 952.501 257.673 952.504 257.673C952.502 257.347 952.5 257.021 952.5 256.694C952.5 182.762 1008.87 122.817 1078.44 122.726L1078.44 122.726C1012.65 122.64 958.67 69.0329 952.994 0.687502C952.665 0.681539 952.337 0.676817 952.008 0.67334C946.333 69.0802 892.266 122.726 826.405 122.726C825.21 122.726 824.019 122.708 822.831 122.673C822.83 122.708 822.828 122.744 822.826 122.779Z"/>
</mask>
<path d="M822.826 122.779L820.829 122.682L820.723 124.842L822.885 124.778L822.826 122.779ZM952.497 257.673L950.497 257.66L950.483 259.673H952.497V257.673ZM952.504 257.673V259.673H954.517L954.504 257.66L952.504 257.673ZM1078.44 122.726L1078.44 124.726L1080.52 124.724L1080.44 122.648L1078.44 122.726ZM1078.44 122.726L1080.44 122.647L1080.36 120.728L1078.44 120.726L1078.44 122.726ZM952.994 0.687502L954.987 0.521959L954.837 -1.27933L953.03 -1.31217L952.994 0.687502ZM952.008 0.67334L952.029 -1.32655L950.169 -1.34622L950.015 0.507994L952.008 0.67334ZM822.831 122.673L822.891 120.674L820.931 120.616L820.834 122.574L822.831 122.673ZM822.885 124.778C824.055 124.744 825.228 124.726 826.405 124.726V120.726C825.189 120.726 823.976 120.744 822.767 120.78L822.885 124.778ZM826.405 124.726C894.829 124.726 950.5 183.694 950.5 256.694H954.5C954.5 181.717 897.262 120.726 826.405 120.726V124.726ZM950.5 256.694C950.5 257.017 950.499 257.338 950.497 257.66L954.497 257.687C954.499 257.356 954.5 257.026 954.5 256.694H950.5ZM952.504 255.673C952.491 255.673 952.48 255.673 952.473 255.673C952.47 255.674 952.467 255.674 952.465 255.674C952.463 255.674 952.462 255.674 952.462 255.674C952.461 255.674 952.462 255.674 952.463 255.674C952.464 255.674 952.467 255.674 952.469 255.674C952.475 255.673 952.485 255.673 952.497 255.673V259.673C952.51 259.673 952.521 259.673 952.527 259.673C952.531 259.673 952.534 259.673 952.535 259.673C952.537 259.673 952.539 259.673 952.539 259.673C952.539 259.673 952.538 259.673 952.537 259.673C952.536 259.673 952.534 259.673 952.531 259.673C952.525 259.673 952.516 259.673 952.504 259.673V255.673ZM950.5 256.694C950.5 257.025 950.502 257.356 950.504 257.687L954.504 257.66C954.502 257.338 954.5 257.017 954.5 256.694H950.5ZM1078.43 120.726C1007.65 120.818 950.5 181.774 950.5 256.694H954.5C954.5 183.75 1010.09 124.815 1078.44 124.726L1078.43 120.726ZM1076.44 122.804L1076.44 122.805L1080.44 122.648V122.647L1076.44 122.804ZM951 0.853046C956.754 70.1238 1011.5 124.639 1078.43 124.726L1078.44 120.726C1013.8 120.642 960.586 67.9421 954.987 0.521959L951 0.853046ZM951.987 2.67323C952.311 2.67665 952.634 2.6813 952.957 2.68717L953.03 -1.31217C952.697 -1.31822 952.363 -1.32302 952.029 -1.32655L951.987 2.67323ZM826.405 124.726C893.414 124.726 948.249 70.1716 954.001 0.838686L950.015 0.507994C944.417 67.9889 891.118 120.726 826.405 120.726V124.726ZM822.772 124.672C823.979 124.708 825.19 124.726 826.405 124.726V120.726C825.23 120.726 824.058 120.709 822.891 120.674L822.772 124.672ZM824.824 122.877C824.825 122.842 824.827 122.807 824.829 122.772L820.834 122.574C820.832 122.61 820.83 122.646 820.829 122.682L824.824 122.877Z" fill="white" mask="url(#path-2-inside-1_1052_307)"/>
<path fill-rule="evenodd" clip-rule="evenodd" d="M0.523436 550.491C1.43448 550.22 2.34668 549.962 3.26105 549.717C56.3025 535.496 94.3877 570.929 88.4731 628.89C94.7406 570.875 142.625 512.421 195.619 498.144C145.417 511.539 108.644 480.434 109.955 427.855C109.706 427.918 109.456 427.981 109.206 428.046C99.2248 482.995 53.5283 536.24 3.26105 549.717C2.3489 549.961 1.44006 550.191 0.536779 550.406C0.53234 550.435 0.527875 550.463 0.523436 550.491ZM88.3966 629.616C88.3822 629.752 88.3677 629.887 88.3522 630.024C88.3533 630.023 88.3544 630.023 88.3566 630.023C88.3699 629.887 88.3833 629.752 88.3966 629.616Z" fill="url(#paint1_linear_1052_307)"/>
<path d="M77.0768 419.771L130.197 275.575L163.432 270.735L165.966 366.237L219.312 262.597L252.183 257.809L232.299 397.165L198.15 402.138L208.926 327.105L171.488 406.021L138.253 410.862L139.558 338.677L112.139 414.665L77.0768 419.771Z" fill="white"/>
<path d="M297.323 388.797C290.262 389.825 283.814 390.152 277.98 389.777C272.145 389.402 267.207 387.918 263.164 385.323C259.135 382.604 256.217 378.438 254.411 372.824C252.726 367.192 252.381 359.651 253.376 350.2C253.821 345.973 254.561 341.212 255.598 335.918C256.648 330.501 257.861 325.243 259.237 320.145C262.507 307.302 266.284 296.467 270.57 287.639C274.991 278.669 280.141 271.308 286.022 265.554C292.024 259.782 298.91 255.289 306.68 252.076C314.586 248.721 323.713 246.29 334.061 244.783C341 243.772 347.326 243.463 353.039 243.855C358.873 244.23 363.799 245.839 367.815 248.682C371.844 251.401 374.743 255.754 376.51 261.741C378.412 267.586 378.833 275.545 377.773 285.617C377.367 289.472 376.646 294.046 375.609 299.339C374.572 304.633 373.36 309.891 371.971 315.113C368.648 328.453 364.783 339.546 360.376 348.391C356.09 357.219 351.027 364.323 345.186 369.704C339.345 375.085 332.491 379.267 324.625 382.249C316.772 385.107 307.671 387.289 297.323 388.797ZM306.238 355.358C310.742 354.702 314.595 353.406 317.795 351.471C321.118 349.517 323.91 346.907 326.172 343.639C328.556 340.353 330.592 336.383 332.281 331.73C334.091 327.058 335.736 321.676 337.217 315.583C338.445 310.752 339.531 306.124 340.476 301.701C341.421 297.278 342.031 293.761 342.306 291.15C342.764 286.798 342.503 283.591 341.521 281.53C340.539 279.469 338.755 278.199 336.168 277.718C333.581 277.238 330.097 277.317 325.714 277.955C321.453 278.576 317.735 279.729 314.561 281.416C311.399 282.978 308.633 285.34 306.262 288.502C303.905 291.539 301.74 295.588 299.769 300.651C297.798 305.713 295.871 312.054 293.99 319.675C292.789 324.258 291.722 328.698 290.79 332.997C289.858 337.296 289.261 340.689 288.999 343.176C288.606 346.906 288.901 349.802 289.883 351.863C290.878 353.799 292.723 355.061 295.418 355.648C298.127 356.11 301.733 356.014 306.238 355.358Z" fill="white"/>
<path d="M398.467 372.964L426.074 264.441L392.473 269.334L401.002 236.135L503.632 221.188L495.102 254.387L461.501 259.281L433.894 367.804L398.467 372.964Z" fill="white"/>
<path d="M483.073 360.642L519.21 218.919L554.637 213.76L540.621 268.328L580.796 262.477L594.812 207.909L630.239 202.749L594.102 344.472L558.675 349.631L572.449 295.649L532.274 301.5L518.5 355.482L483.073 360.642Z" fill="white"/>
<path d="M648.04 337.718C644.631 338.215 640.957 338.382 637.018 338.221C633.214 337.918 629.732 336.834 626.572 334.968C623.412 333.101 621.148 330.125 619.78 326.039C618.546 321.811 618.851 316.073 620.692 308.826L639.352 235.766C641.62 226.743 644.843 219.478 649.018 213.972C653.329 208.324 658.335 204.045 664.036 201.133C669.872 198.079 676.077 196.073 682.651 195.116C691.781 193.786 700.886 192.705 709.964 191.872C719.043 191.04 728.345 190.359 737.871 189.828L729.903 221.109L684.615 227.705C680.841 228.255 678.064 229.577 676.285 231.673C674.641 233.627 673.331 236.389 672.356 239.959L670.155 248.912L714.882 244.234L707.475 273.597L661.625 282.111L658.843 293.168C658.39 295.193 658.268 296.925 658.476 298.364C658.806 299.785 659.601 300.772 660.862 301.323C662.122 301.874 663.909 301.981 666.222 301.644L711.146 295.101L703.178 326.382C694.564 328.494 685.781 330.507 676.828 332.423C667.862 334.464 658.266 336.229 648.04 337.718Z" fill="white"/>
<path d="M722.576 325.761L758.713 184.038L812.036 176.272C818.488 175.332 824.071 175.254 828.784 176.037C833.631 176.678 837.541 178.251 840.514 180.757C843.5 183.138 845.603 186.505 846.823 190.857C848.056 195.086 848.339 200.371 847.672 206.712C847.475 208.577 847.144 210.585 846.678 212.734C846.347 214.741 845.881 216.891 845.28 219.182C843.773 225.524 841.763 230.959 839.248 235.488C836.855 240 834.297 243.8 831.574 246.891C828.865 249.857 826.207 252.325 823.602 254.296C820.997 256.267 818.79 257.874 816.981 259.117L826.483 310.628L790.508 315.867L784.03 269.793C782.934 269.953 781.778 270.121 780.56 270.299C779.465 270.458 778.369 270.618 777.273 270.778C776.178 270.937 775.021 271.106 773.804 271.283C772.708 271.442 771.612 271.602 770.517 271.762L758.003 320.601L722.576 325.761ZM777.923 242.399L792.715 240.245C796.611 239.678 799.591 238.692 801.657 237.29C803.857 235.745 805.563 233.782 806.772 231.402C807.995 228.898 809.033 225.869 809.886 222.317C810.234 221.286 810.448 220.398 810.526 219.652C810.618 218.782 810.703 217.973 810.782 217.227C810.978 215.362 810.837 213.852 810.359 212.697C809.895 211.418 808.91 210.521 807.406 210.005C806.024 209.472 804.054 209.391 801.498 209.764L785.61 212.078L777.923 242.399Z" fill="white"/>
<path d="M868.175 217.868C865.983 218.187 864.346 218.364 863.264 218.4C862.303 218.417 861.349 218.372 860.401 218.266L864.006 204.517C866.806 204.109 868.65 203.106 869.537 201.507C870.425 199.909 870.975 198.666 871.189 197.777L871.849 194.926L869.84 195.219C867.283 195.591 866.136 194.534 866.398 192.047C866.411 191.923 866.424 191.798 866.437 191.674C866.463 191.425 866.483 191.239 866.496 191.114L872.021 169.372C872.983 165.926 874.925 163.991 877.847 163.565L899.943 160.347C902.5 159.975 903.647 161.032 903.386 163.519C903.372 163.643 903.292 163.839 903.144 164.105C903.118 164.354 903.092 164.602 903.065 164.851L895.359 195.359C893.944 200.83 891.631 205.146 888.421 208.307C885.346 211.327 881.93 213.599 878.173 215.126C874.551 216.511 871.218 217.425 868.175 217.868Z" fill="white"/>
<path d="M932.018 296.359C924.713 297.423 918.172 298.07 912.394 298.299C906.724 298.635 901.737 298.749 897.433 298.641C893.142 298.409 889.46 298.089 886.386 297.679L893.792 268.317C899.462 267.981 905.868 267.476 913.012 266.803C920.29 265.988 927.46 265.066 934.521 264.038C939.148 263.364 942.826 262.584 945.557 261.696C948.422 260.667 950.529 259.441 951.877 258.021C953.361 256.458 954.403 254.531 955.003 252.239L955.585 250.134C955.759 249.619 955.865 249.175 955.905 248.802C955.944 248.429 955.983 248.056 956.023 247.683C956.284 245.196 955.433 243.606 953.468 242.913C951.625 242.201 948.451 242.174 943.946 242.83L936.642 243.894C925.563 245.507 917.24 243.72 911.673 238.531C906.24 233.2 904.021 225.81 905.016 216.359C905.291 213.748 905.755 211.048 906.408 208.259L909.171 197.388C911.574 188.222 915.248 180.647 920.194 174.662C925.274 168.535 931.53 163.767 938.962 160.358C946.528 156.807 955.12 154.331 964.738 152.931C968.025 152.452 971.36 152.089 974.743 151.841C978.138 151.469 981.575 151.274 985.053 151.257C988.545 151.116 992.077 151.153 995.651 151.367C999.238 151.457 1002.87 151.724 1006.54 152.169L999.129 181.532C994.798 181.673 990.083 182.053 984.983 182.674C980.018 183.152 975.046 183.692 970.068 184.295C965.211 184.88 960.774 185.465 956.756 186.05C954.2 186.422 951.915 187.061 949.901 187.967C947.901 188.748 946.166 189.857 944.696 191.296C943.348 192.717 942.373 194.573 941.772 196.864L941.191 198.969C941.017 199.484 940.836 200.062 940.649 200.701C940.597 201.198 940.544 201.696 940.492 202.193C940.23 204.68 940.758 206.501 942.075 207.656C943.405 208.687 945.713 208.963 949 208.484L957.035 207.314C969.331 205.523 978.385 207.204 984.196 212.358C990.02 217.386 992.448 224.502 991.479 233.703C991.243 235.942 990.806 238.393 990.166 241.057L986.782 254.406C984.901 262.027 981.927 268.643 977.86 274.256C973.914 279.85 968.267 284.53 960.918 288.294C953.704 291.915 944.071 294.604 932.018 296.359Z" fill="white"/>
<path d="M73.9531 639.291L110.09 497.569L163.231 489.829C175.892 487.985 185.476 488.61 191.984 491.702C198.491 494.795 202.698 499.815 204.604 506.761C206.523 513.583 206.979 521.781 205.971 531.356C205.552 535.335 204.931 539.527 204.107 543.933C203.406 548.32 202.448 552.868 201.233 557.575C198.137 569.903 194.27 580.445 189.632 589.201C185.116 597.94 179.735 605.213 173.49 611.02C167.366 616.81 160.351 621.382 152.446 624.737C144.554 627.968 135.738 630.293 125.998 631.711L73.9531 639.291ZM117.91 600.932L133.249 598.698C137.389 598.095 141.113 596.88 144.422 595.051C147.866 593.08 150.902 590.434 153.529 587.113C156.157 583.791 158.51 579.653 160.59 574.697C162.67 569.742 164.612 563.827 166.414 556.952C167.481 552.512 168.361 548.71 169.053 545.548C169.759 542.262 170.197 539.811 170.367 538.194C170.851 533.594 170.494 530.156 169.295 527.882C168.109 525.483 165.985 524.017 162.925 523.484C159.999 522.808 156.04 522.833 151.049 523.56L136.987 525.608L117.91 600.932Z" fill="white"/>
<path d="M192.018 622.096L268.33 474.522L312.522 468.086L316.561 603.958L279.855 609.304L280.163 587.587L239.44 593.518L228.358 616.804L192.018 622.096ZM256.005 559.148L280.292 555.611L282.073 502.825L256.005 559.148Z" fill="white"/>
<path d="M350.216 599.056L359.986 560.901L346.725 463.105L385.257 457.493L387.628 518.674L423.606 451.908L463.598 446.083L395.414 555.741L385.643 593.897L350.216 599.056Z" fill="white"/>
<path d="M480.448 580.089L533.568 435.893L566.804 431.053L569.338 526.554L622.684 422.914L655.555 418.127L635.671 557.482L601.522 562.456L612.297 487.422L574.86 566.339L541.624 571.179L542.929 498.994L515.51 574.983L480.448 580.089Z" fill="white"/>
<path d="M650.508 555.322L686.645 413.599L722.072 408.439L685.935 550.162L650.508 555.322Z" fill="white"/>
<path d="M740.302 542.244C731.414 543.538 724.535 542.275 719.662 538.454C714.912 534.616 713.034 527.972 714.028 518.521C714.185 517.029 714.403 515.528 714.682 514.018C714.974 512.384 715.327 510.741 715.741 509.089L742.107 405.521L777.534 400.362L752.409 498.973C752.235 499.489 752.128 499.933 752.089 500.306C752.049 500.679 752.01 501.052 751.971 501.425C751.722 503.787 752.202 505.493 753.41 506.541C754.618 507.59 756.744 507.892 759.788 507.449L798.867 501.758L790.338 534.957L740.302 542.244Z" fill="white"/>
<path d="M839.729 528.865C836.32 529.362 832.646 529.53 828.707 529.369C824.903 529.066 821.421 527.981 818.26 526.115C815.1 524.249 812.836 521.273 811.468 517.186C810.235 512.958 810.539 507.22 812.381 499.973L831.041 426.914C833.309 417.89 836.531 410.625 840.707 405.119C845.018 399.472 850.024 395.192 855.725 392.28C861.561 389.226 867.766 387.22 874.34 386.263C883.47 384.933 892.575 383.852 901.653 383.02C910.732 382.187 920.034 381.506 929.56 380.976L921.592 412.256L876.304 418.852C872.529 419.402 869.753 420.724 867.974 422.82C866.33 424.774 865.02 427.536 864.045 431.106L861.844 440.059L906.571 435.381L899.164 464.744L853.314 473.258L850.532 484.315C850.079 486.34 849.957 488.072 850.165 489.511C850.495 490.933 851.29 491.919 852.551 492.47C853.811 493.021 855.598 493.128 857.911 492.791L902.834 486.248L894.866 517.529C886.253 519.641 877.47 521.655 868.517 523.571C859.551 525.611 849.955 527.376 839.729 528.865Z" fill="white"/>
<path d="M960.531 511.272C953.226 512.335 946.685 512.982 940.907 513.211C935.237 513.547 930.25 513.661 925.946 513.554C921.655 513.322 917.972 513.001 914.899 512.591L922.305 483.229C927.975 482.893 934.381 482.389 941.525 481.715C948.803 480.9 955.973 479.979 963.034 478.95C967.66 478.276 971.339 477.496 974.07 476.608C976.935 475.579 979.042 474.354 980.39 472.933C981.873 471.37 982.915 469.443 983.516 467.151L984.098 465.047C984.272 464.531 984.378 464.087 984.418 463.714C984.457 463.341 984.496 462.968 984.535 462.595C984.797 460.108 983.946 458.518 981.981 457.825C980.137 457.114 976.964 457.086 972.459 457.742L965.155 458.806C954.076 460.42 945.753 458.632 940.185 453.443C934.753 448.112 932.534 440.722 933.529 431.271C933.804 428.66 934.268 425.96 934.921 423.171L937.683 412.3C940.087 403.135 943.761 395.559 948.707 389.574C953.787 383.447 960.043 378.679 967.475 375.27C975.041 371.719 983.633 369.243 993.251 367.843C996.538 367.364 999.873 367.001 1003.26 366.753C1006.65 366.381 1010.09 366.186 1013.57 366.17C1017.06 366.029 1020.59 366.065 1024.16 366.279C1027.75 366.369 1031.38 366.636 1035.05 367.082L1027.64 396.444C1023.31 396.585 1018.6 396.965 1013.5 397.586C1008.53 398.064 1003.56 398.605 998.58 399.207C993.724 399.792 989.287 400.377 985.269 400.962C982.713 401.334 980.428 401.973 978.414 402.879C976.414 403.66 974.679 404.77 973.209 406.208C971.86 407.629 970.886 409.485 970.285 411.776L969.704 413.881C969.53 414.396 969.349 414.974 969.162 415.613C969.11 416.111 969.057 416.608 969.005 417.105C968.743 419.592 969.271 421.413 970.588 422.568C971.918 423.599 974.226 423.875 977.513 423.396L985.548 422.226C997.844 420.435 1006.9 422.116 1012.71 427.27C1018.53 432.299 1020.96 439.414 1019.99 448.616C1019.76 450.854 1019.32 453.305 1018.68 455.97L1015.3 469.319C1013.41 476.939 1010.44 483.555 1006.37 489.168C1002.43 494.762 996.78 499.442 989.431 503.206C982.217 506.828 972.583 509.516 960.531 511.272Z" fill="white"/>
<path d="M240.245 690.871L241.821 684.132L255.896 670.819C257.503 669.27 258.708 667.842 259.511 666.532C260.348 665.187 260.812 664.004 260.901 662.984C260.951 662.41 260.882 661.947 260.694 661.596C260.537 661.24 260.245 660.998 259.818 660.869C259.394 660.708 258.818 660.679 258.089 660.781L247.727 662.237L249.393 655.533C250.844 655.046 252.486 654.531 254.317 653.991C256.148 653.45 258.189 653.022 260.439 652.705C262.815 652.371 264.67 652.457 266.003 652.962C267.336 653.468 268.251 654.284 268.747 655.411C269.277 656.501 269.474 657.827 269.338 659.389C269.128 661.78 268.451 664.158 267.305 666.523C266.162 668.856 264.344 671.206 261.853 673.571L253.347 681.709L266.276 679.892L264.439 687.471L240.245 690.871ZM268.004 686.97L269.579 680.231L283.655 666.917C285.261 665.369 286.466 663.94 287.269 662.631C288.107 661.285 288.57 660.102 288.659 659.082C288.71 658.509 288.641 658.046 288.452 657.695C288.296 657.339 288.004 657.096 287.577 656.968C287.153 656.807 286.576 656.778 285.847 656.88L275.485 658.336L277.152 651.632C278.603 651.144 280.244 650.63 282.075 650.09C283.907 649.549 285.947 649.12 288.197 648.804C290.574 648.47 292.429 648.556 293.762 649.061C295.095 649.566 296.009 650.383 296.505 651.509C297.036 652.6 297.233 653.926 297.096 655.488C296.887 657.879 296.209 660.257 295.063 662.622C293.92 664.955 292.103 667.304 289.611 669.67L281.106 677.808L294.035 675.991L292.198 683.569L268.004 686.97ZM308.265 681.311L316.978 645.043L330.573 643.132C333.773 642.682 336.199 642.861 337.85 643.668C339.535 644.439 340.644 645.715 341.177 647.498C341.712 649.249 341.871 651.368 341.654 653.854C341.567 654.843 341.428 655.901 341.235 657.03C341.074 658.155 340.848 659.304 340.558 660.479C339.823 663.51 338.888 666.145 337.753 668.382C336.65 670.615 335.329 672.486 333.788 673.993C332.248 675.501 330.469 676.695 328.451 677.577C326.434 678.459 324.173 679.076 321.67 679.427L308.265 681.311ZM318.325 672.577L323.174 671.896C324.378 671.726 325.458 671.37 326.413 670.826C327.403 670.246 328.268 669.479 329.009 668.525C329.749 667.571 330.399 666.409 330.957 665.04C331.515 663.67 332.014 662.073 332.456 660.248C332.709 659.142 332.919 658.167 333.087 657.325C333.255 656.483 333.359 655.823 333.401 655.345C333.518 654.006 333.404 652.983 333.059 652.276C332.746 651.564 332.161 651.095 331.304 650.869C330.48 650.639 329.338 650.626 327.881 650.831L323.365 651.466L318.325 672.577ZM351.382 675.535C348.91 675.882 346.963 675.778 345.541 675.222C344.153 674.63 343.19 673.648 342.653 672.275C342.148 670.898 341.984 669.189 342.163 667.149C342.238 666.288 342.357 665.468 342.519 664.69C342.683 663.88 342.861 663.099 343.052 662.348C343.747 659.417 344.756 657.008 346.079 655.122C347.402 653.235 349.032 651.778 350.968 650.751C352.908 649.691 355.113 648.987 357.585 648.64C358.821 648.466 360.014 648.424 361.164 648.515C362.317 648.573 363.344 648.822 364.244 649.263C365.147 649.671 365.839 650.345 366.321 651.285C366.833 652.22 367.019 653.501 366.876 655.127C366.717 656.944 366.301 658.482 365.628 659.742C364.957 660.97 364.087 661.974 363.017 662.754C361.981 663.497 360.803 664.088 359.481 664.526C358.194 664.927 356.806 665.232 355.317 665.442C354.271 665.589 353.307 665.693 352.426 665.754C351.578 665.778 350.891 665.765 350.363 665.713C350.315 665.909 350.264 666.136 350.21 666.396C350.19 666.619 350.171 666.842 350.151 667.065C350.07 667.989 350.422 668.617 351.207 668.947C351.992 669.278 353.319 669.312 355.189 669.049L363.555 667.873L362.372 672.81C360.984 673.288 359.328 673.789 357.405 674.311C355.513 674.829 353.505 675.237 351.382 675.535ZM353.714 661.227C355.013 661.045 356.038 660.775 356.789 660.417C357.572 660.055 358.144 659.597 358.506 659.043C358.867 658.488 359.08 657.844 359.144 657.111C359.217 656.282 359.033 655.694 358.594 655.346C358.155 654.999 357.445 654.894 356.462 655.032C355.543 655.161 354.749 655.477 354.079 655.981C353.409 656.484 352.846 657.193 352.39 658.107C351.938 658.99 351.562 660.066 351.263 661.336C351.64 661.314 352.032 661.306 352.439 661.312C352.877 661.314 353.302 661.285 353.714 661.227ZM376.52 672.002C375.379 672.162 374.32 672.28 373.344 672.354C372.398 672.424 371.502 672.471 370.655 672.496C369.842 672.484 369.078 672.45 368.364 672.393C367.683 672.299 367.034 672.202 366.417 672.1L367.6 667.163L378.913 665.573C379.515 665.489 380.016 665.308 380.416 665.031C380.819 664.723 381.07 664.357 381.169 663.934L381.379 663.149C381.425 662.985 381.45 662.871 381.456 662.807C381.461 662.743 381.466 662.696 381.468 662.664C381.532 661.93 381.042 661.637 379.996 661.784L376.479 662.279C375.084 662.475 373.832 662.477 372.722 662.287C371.646 662.06 370.811 661.595 370.215 660.892C369.622 660.157 369.381 659.151 369.493 657.876C369.523 657.526 369.554 657.175 369.585 656.824C369.65 656.437 369.732 656.032 369.832 655.609L370.272 653.8C370.643 652.425 371.238 651.161 372.059 650.006C372.912 648.847 374.125 647.858 375.699 647.039C377.273 646.219 379.328 645.631 381.863 645.275C382.94 645.124 384.075 645.027 385.269 644.985C386.464 644.912 387.607 644.909 388.697 644.976C389.821 645.007 390.782 645.108 391.581 645.279L390.398 650.215L379.75 651.712C379.085 651.805 378.584 651.986 378.248 652.254C377.914 652.489 377.662 652.871 377.49 653.399L377.357 653.843C377.312 654.007 377.266 654.17 377.221 654.334C377.209 654.462 377.2 654.573 377.191 654.669C377.163 654.988 377.252 655.227 377.457 655.387C377.662 655.547 378.097 655.581 378.763 655.487L382.803 654.919C384.895 654.625 386.534 654.852 387.72 655.598C388.907 656.344 389.431 657.514 389.291 659.108C389.26 659.459 389.213 659.828 389.147 660.215C389.114 660.597 389.047 661 388.948 661.424L388.418 663.718C387.823 666.226 386.483 668.13 384.397 669.431C382.346 670.695 379.72 671.552 376.52 672.002ZM401.839 668.444C399.368 668.791 397.42 668.687 395.998 668.131C394.61 667.539 393.648 666.557 393.11 665.184C392.605 663.806 392.441 662.098 392.62 660.057C392.695 659.197 392.814 658.377 392.976 657.599C393.141 656.788 393.319 656.008 393.509 655.257C394.204 652.325 395.213 649.916 396.536 648.03C397.859 646.144 399.489 644.687 401.425 643.659C403.365 642.599 405.57 641.896 408.042 641.549C409.278 641.375 410.471 641.333 411.621 641.423C412.774 641.482 413.801 641.731 414.701 642.171C415.604 642.58 416.297 643.254 416.778 644.194C417.291 645.129 417.476 646.41 417.334 648.036C417.175 649.853 416.758 651.391 416.085 652.651C415.414 653.878 414.544 654.882 413.474 655.662C412.439 656.406 411.26 656.997 409.939 657.434C408.652 657.836 407.263 658.141 405.774 658.35C404.728 658.497 403.765 658.601 402.883 658.662C402.036 658.687 401.348 658.673 400.821 658.621C400.772 658.817 400.721 659.045 400.667 659.304C400.648 659.527 400.628 659.751 400.608 659.974C400.528 660.898 400.88 661.526 401.664 661.856C402.449 662.187 403.777 662.221 405.646 661.958L414.012 660.782L412.829 665.718C411.441 666.197 409.786 666.697 407.862 667.219C405.97 667.737 403.962 668.145 401.839 668.444ZM404.171 654.136C405.47 653.954 406.495 653.684 407.246 653.326C408.029 652.964 408.601 652.506 408.963 651.951C409.324 651.397 409.537 650.753 409.601 650.02C409.674 649.191 409.491 648.603 409.052 648.255C408.613 647.907 407.902 647.803 406.919 647.941C406 648.07 405.206 648.386 404.536 648.89C403.866 649.393 403.303 650.102 402.848 651.016C402.395 651.898 402.019 652.974 401.72 654.244C402.098 654.223 402.489 654.215 402.896 654.221C403.334 654.222 403.759 654.194 404.171 654.136ZM416.783 666.06L423.026 639.773L429.871 638.811L430.647 641.205C431.794 640.257 433.057 639.418 434.436 638.689C435.814 637.96 437.47 637.46 439.403 637.188C440.829 636.988 442.008 637.106 442.94 637.541C443.875 637.945 444.615 638.786 445.16 640.063C446.675 638.496 448.264 637.328 449.927 636.559C451.593 635.758 453.092 635.264 454.423 635.077C456.958 634.721 458.668 635.032 459.553 636.009C460.469 636.983 460.846 638.394 460.685 640.243C460.62 640.976 460.526 641.698 460.401 642.408C460.277 643.118 460.122 643.817 459.936 644.504L456.092 660.536L447.869 661.691L451.696 645.851C451.739 645.719 451.766 645.589 451.777 645.462C451.791 645.302 451.804 645.159 451.815 645.031C451.949 643.501 451.144 642.859 449.401 643.104C448.578 643.219 447.754 643.508 446.931 643.97C446.143 644.396 445.356 644.979 444.572 645.719C444.523 645.915 444.473 646.126 444.422 646.354C444.403 646.577 444.367 646.802 444.316 647.03L440.549 662.72L432.326 663.876L436.097 648.138C436.148 647.91 436.18 647.733 436.191 647.605C436.202 647.478 436.214 647.334 436.228 647.175C436.301 646.346 436.129 645.803 435.713 645.547C435.301 645.259 434.682 645.172 433.858 645.288C432.812 645.435 431.908 645.751 431.146 646.236C430.416 646.717 429.727 647.254 429.08 647.849L424.958 664.911L416.783 666.06ZM476.688 657.924C475.738 658.058 474.813 658.078 473.913 657.984C473.014 657.89 472.185 657.707 471.426 657.436C470.702 657.128 470.062 656.746 469.507 656.289L468.015 658.86L460.695 659.889L469.638 622.596L477.814 621.447L474.854 633.812C475.913 633.159 477.009 632.612 478.144 632.169C479.309 631.722 480.304 631.44 481.128 631.324C483.632 630.972 485.527 631.493 486.813 632.887C488.131 634.276 488.664 636.421 488.41 639.322C488.348 640.023 488.207 640.924 487.985 642.026C487.767 643.096 487.51 644.234 487.217 645.44C486.659 647.88 485.864 649.991 484.832 651.774C483.8 653.556 482.596 654.969 481.222 656.012C479.847 657.055 478.336 657.693 476.688 657.924ZM474.651 651.693C475.76 651.537 476.721 650.93 477.534 649.871C478.349 648.78 479.041 646.951 479.61 644.384C479.747 643.892 479.851 643.421 479.921 642.971C479.992 642.52 480.042 642.135 480.069 641.816C480.201 640.318 480.036 639.334 479.577 638.863C479.117 638.392 478.507 638.21 477.746 638.317C477.081 638.411 476.344 638.609 475.535 638.911C474.76 639.178 474.058 639.512 473.428 639.916L470.772 650.963C471.211 651.311 471.721 651.554 472.304 651.692C472.887 651.831 473.669 651.831 474.651 651.693ZM499.644 654.698C497.172 655.046 495.225 654.941 493.803 654.386C492.415 653.794 491.452 652.811 490.915 651.438C490.409 650.061 490.246 648.352 490.424 646.312C490.5 645.451 490.618 644.632 490.78 643.853C490.945 643.043 491.123 642.262 491.314 641.511C492.009 638.58 493.017 636.171 494.34 634.285C495.664 632.399 497.293 630.942 499.23 629.914C501.169 628.854 503.375 628.15 505.847 627.803C507.082 627.629 508.275 627.588 509.426 627.678C510.578 627.736 511.605 627.986 512.506 628.426C513.409 628.834 514.101 629.508 514.582 630.448C515.095 631.384 515.28 632.664 515.138 634.29C514.979 636.107 514.563 637.645 513.889 638.905C513.219 640.133 512.348 641.137 511.278 641.917C510.243 642.661 509.065 643.251 507.743 643.689C506.456 644.09 505.068 644.396 503.578 644.605C502.533 644.752 501.569 644.856 500.687 644.917C499.84 644.941 499.153 644.928 498.625 644.876C498.577 645.072 498.525 645.299 498.471 645.559C498.452 645.782 498.432 646.005 498.413 646.228C498.332 647.153 498.684 647.78 499.469 648.111C500.254 648.441 501.581 648.475 503.451 648.212L511.816 647.037L510.633 651.973C509.246 652.451 507.59 652.952 505.666 653.474C503.774 653.992 501.767 654.4 499.644 654.698ZM501.975 640.391C503.275 640.208 504.3 639.938 505.051 639.581C505.834 639.219 506.406 638.76 506.767 638.206C507.129 637.651 507.342 637.007 507.406 636.274C507.478 635.445 507.295 634.857 506.856 634.509C506.417 634.162 505.706 634.057 504.724 634.195C503.805 634.324 503.01 634.641 502.34 635.144C501.67 635.648 501.108 636.356 500.652 637.271C500.199 638.153 499.823 639.229 499.524 640.499C499.902 640.477 500.294 640.469 500.7 640.475C501.138 640.477 501.563 640.449 501.975 640.391ZM514.587 652.315L520.878 626.021L528.246 624.986L528.281 628.334C529.226 627.194 530.268 626.197 531.407 625.344C532.58 624.455 533.88 623.91 535.306 623.71C535.781 623.643 536.207 623.599 536.585 623.578C536.962 623.556 537.321 623.569 537.661 623.615L535.702 632.061C535.258 632.124 534.783 632.19 534.276 632.262C533.803 632.297 533.329 632.347 532.854 632.414C531.491 632.606 530.286 632.964 529.239 633.489C528.191 634.014 527.33 634.56 526.654 635.128L522.81 651.159L514.587 652.315ZM547.966 637.186L549.542 630.447L564.324 628.369L562.701 635.115L547.966 637.186ZM574.832 643.848L576.408 637.109L590.483 623.795C592.09 622.247 593.294 620.818 594.098 619.509C594.935 618.163 595.399 616.981 595.488 615.96C595.538 615.387 595.469 614.924 595.281 614.573C595.124 614.217 594.832 613.975 594.405 613.846C593.981 613.685 593.405 613.656 592.676 613.758L582.314 615.214L583.98 608.51C585.431 608.022 587.072 607.508 588.904 606.968C590.735 606.427 592.776 605.998 595.026 605.682C597.402 605.348 599.257 605.434 600.59 605.939C601.923 606.445 602.837 607.261 603.333 608.387C603.864 609.478 604.061 610.804 603.924 612.366C603.715 614.757 603.038 617.135 601.892 619.5C600.749 621.833 598.931 624.182 596.439 626.548L587.934 634.686L600.863 632.869L599.026 640.448L574.832 643.848ZM614.971 638.49C613.165 638.744 611.225 638.922 609.15 639.025C607.107 639.123 605.145 639.194 603.263 639.238L604.877 632.588L617.188 630.858C618.266 630.706 619.105 630.415 619.706 629.984C620.31 629.522 620.747 629.004 621.016 628.431C621.317 627.853 621.504 627.323 621.578 626.84L622.078 624.881C622.123 624.717 622.153 624.556 622.167 624.396C622.213 624.232 622.242 624.071 622.256 623.911C622.315 623.242 622.169 622.759 621.82 622.461C621.473 622.132 620.856 622.03 619.969 622.155L617.545 622.495C616.657 622.62 615.976 622.889 615.502 623.302C615.031 623.683 614.652 624.256 614.366 625.02L606.523 626.122L612.92 603.451L634.5 600.418L632.663 607.997L618.926 609.927L617.005 616.856C617.58 616.366 618.209 615.979 618.891 615.694C619.576 615.377 620.267 615.17 620.964 615.072L624.671 614.551C627.048 614.217 628.735 614.61 629.733 615.729C630.733 616.816 631.15 618.316 630.982 620.229C630.954 620.548 630.911 620.869 630.851 621.192C630.823 621.511 630.764 621.834 630.672 622.162L629.361 627.494C628.857 629.674 627.976 631.514 626.718 633.013C625.492 634.508 623.9 635.708 621.943 636.613C620.021 637.481 617.697 638.107 614.971 638.49ZM643.549 634.19L652.262 597.922L665.856 596.011C669.057 595.561 671.482 595.74 673.133 596.547C674.818 597.318 675.927 598.594 676.46 600.377C676.995 602.128 677.154 604.247 676.937 606.733C676.85 607.722 676.711 608.78 676.518 609.909C676.357 611.034 676.131 612.183 675.841 613.358C675.106 616.389 674.171 619.024 673.037 621.261C671.934 623.495 670.612 625.365 669.071 626.872C667.531 628.38 665.752 629.574 663.734 630.456C661.717 631.338 659.456 631.955 656.953 632.306L643.549 634.19ZM653.609 625.456L658.457 624.775C659.661 624.605 660.741 624.249 661.696 623.705C662.686 623.125 663.551 622.358 664.292 621.404C665.032 620.45 665.682 619.288 666.24 617.919C666.798 616.549 667.297 614.952 667.739 613.127C667.992 612.021 668.203 611.047 668.37 610.204C668.538 609.362 668.642 608.702 668.684 608.224C668.801 606.885 668.687 605.862 668.342 605.155C668.029 604.443 667.444 603.974 666.588 603.748C665.763 603.518 664.621 603.505 663.164 603.71L658.648 604.345L653.609 625.456ZM686.665 628.414C684.193 628.761 682.246 628.657 680.824 628.101C679.436 627.509 678.473 626.527 677.936 625.154C677.431 623.777 677.267 622.068 677.446 620.028C677.521 619.167 677.64 618.347 677.802 617.569C677.967 616.759 678.144 615.978 678.335 615.227C679.03 612.296 680.039 609.887 681.362 608.001C682.685 606.114 684.315 604.657 686.251 603.63C688.191 602.57 690.396 601.866 692.868 601.519C694.104 601.345 695.297 601.304 696.447 601.394C697.6 601.452 698.627 601.701 699.527 602.142C700.43 602.55 701.123 603.224 701.604 604.164C702.116 605.099 702.302 606.38 702.16 608.006C702.001 609.823 701.584 611.361 700.911 612.621C700.24 613.849 699.37 614.853 698.3 615.633C697.264 616.377 696.086 616.967 694.764 617.405C693.477 617.806 692.089 618.111 690.6 618.321C689.554 618.468 688.59 618.572 687.709 618.633C686.861 618.657 686.174 618.644 685.647 618.592C685.598 618.788 685.547 619.015 685.493 619.275C685.473 619.498 685.454 619.721 685.434 619.944C685.353 620.869 685.705 621.496 686.49 621.827C687.275 622.157 688.602 622.191 690.472 621.928L698.838 620.752L697.655 625.689C696.267 626.167 694.611 626.668 692.688 627.19C690.796 627.708 688.788 628.116 686.665 628.414ZM688.997 614.106C690.296 613.924 691.321 613.654 692.072 613.296C692.855 612.934 693.427 612.476 693.789 611.922C694.15 611.367 694.363 610.723 694.427 609.99C694.5 609.161 694.317 608.573 693.877 608.225C693.438 607.878 692.728 607.773 691.745 607.911C690.826 608.04 690.032 608.356 689.362 608.86C688.692 609.363 688.129 610.072 687.673 610.986C687.221 611.869 686.845 612.945 686.546 614.215C686.923 614.193 687.315 614.185 687.722 614.191C688.16 614.193 688.585 614.164 688.997 614.106ZM711.803 624.881C710.662 625.041 709.603 625.159 708.627 625.233C707.682 625.303 706.785 625.35 705.938 625.375C705.125 625.363 704.362 625.329 703.647 625.272C702.966 625.178 702.318 625.081 701.701 624.979L702.884 620.042L714.196 618.452C714.798 618.368 715.299 618.187 715.699 617.91C716.102 617.602 716.353 617.236 716.453 616.813L716.662 616.028C716.708 615.864 716.733 615.75 716.739 615.686C716.744 615.622 716.749 615.575 716.751 615.543C716.816 614.81 716.325 614.516 715.279 614.663L711.762 615.158C710.367 615.354 709.115 615.356 708.005 615.166C706.929 614.939 706.094 614.474 705.498 613.771C704.905 613.036 704.664 612.03 704.776 610.755C704.807 610.405 704.837 610.054 704.868 609.703C704.933 609.316 705.015 608.911 705.115 608.488L705.555 606.679C705.926 605.304 706.521 604.04 707.342 602.885C708.195 601.726 709.408 600.737 710.982 599.918C712.556 599.098 714.611 598.51 717.146 598.154C718.223 598.003 719.359 597.906 720.552 597.864C721.747 597.791 722.89 597.788 723.98 597.855C725.104 597.886 726.065 597.987 726.864 598.158L725.681 603.094L715.034 604.591C714.368 604.684 713.867 604.865 713.531 605.133C713.197 605.368 712.945 605.75 712.773 606.278L712.641 606.722C712.595 606.886 712.549 607.05 712.504 607.213C712.492 607.341 712.483 607.452 712.474 607.548C712.446 607.867 712.535 608.106 712.74 608.266C712.945 608.426 713.38 608.46 714.046 608.366L718.086 607.798C720.178 607.504 721.817 607.731 723.003 608.477C724.19 609.223 724.714 610.393 724.574 611.987C724.544 612.338 724.496 612.707 724.43 613.094C724.397 613.476 724.33 613.879 724.231 614.303L723.701 616.597C723.106 619.105 721.766 621.009 719.681 622.31C717.629 623.574 715.004 624.431 711.803 624.881ZM737.122 621.323C734.651 621.67 732.704 621.566 731.281 621.01C729.893 620.418 728.931 619.436 728.393 618.063C727.888 616.685 727.725 614.977 727.903 612.936C727.978 612.076 728.097 611.256 728.259 610.478C728.424 609.667 728.602 608.887 728.793 608.136C729.487 605.204 730.496 602.796 731.819 600.909C733.142 599.023 734.772 597.566 736.709 596.538C738.648 595.479 740.853 594.775 743.325 594.428C744.561 594.254 745.754 594.212 746.904 594.302C748.057 594.361 749.084 594.61 749.984 595.05C750.888 595.459 751.58 596.133 752.061 597.073C752.574 598.008 752.759 599.289 752.617 600.915C752.458 602.732 752.042 604.27 751.368 605.53C750.697 606.757 749.827 607.761 748.757 608.541C747.722 609.285 746.543 609.876 745.222 610.314C743.935 610.715 742.546 611.02 741.057 611.229C740.011 611.376 739.048 611.48 738.166 611.541C737.319 611.566 736.631 611.552 736.104 611.501C736.055 611.696 736.004 611.924 735.95 612.183C735.931 612.406 735.911 612.63 735.892 612.853C735.811 613.777 736.163 614.405 736.948 614.735C737.732 615.066 739.06 615.1 740.929 614.837L749.295 613.661L748.112 618.598C746.724 619.076 745.069 619.576 743.145 620.098C741.253 620.616 739.246 621.024 737.122 621.323ZM739.454 607.015C740.753 606.833 741.778 606.563 742.53 606.205C743.312 605.843 743.885 605.385 744.246 604.83C744.608 604.276 744.82 603.632 744.885 602.899C744.957 602.07 744.774 601.482 744.335 601.134C743.896 600.786 743.185 600.682 742.203 600.82C741.284 600.949 740.489 601.265 739.819 601.769C739.149 602.272 738.586 602.981 738.131 603.895C737.678 604.777 737.302 605.853 737.003 607.123C737.381 607.102 737.773 607.094 738.179 607.1C738.617 607.101 739.042 607.073 739.454 607.015ZM752.066 618.939L758.309 592.652L765.154 591.69L765.93 594.084C767.078 593.136 768.34 592.297 769.719 591.568C771.097 590.839 772.753 590.339 774.686 590.067C776.112 589.867 777.291 589.985 778.223 590.42C779.158 590.824 779.898 591.665 780.444 592.942C781.958 591.375 783.547 590.207 785.21 589.438C786.876 588.637 788.375 588.143 789.706 587.956C792.241 587.6 793.951 587.911 794.836 588.889C795.752 589.862 796.129 591.273 795.968 593.122C795.904 593.855 795.809 594.577 795.684 595.287C795.56 595.997 795.405 596.696 795.219 597.383L791.375 613.415L783.152 614.57L786.979 598.73C787.022 598.598 787.049 598.468 787.06 598.341C787.074 598.181 787.087 598.038 787.098 597.911C787.232 596.38 786.427 595.738 784.685 595.983C783.861 596.099 783.037 596.387 782.214 596.849C781.426 597.275 780.639 597.858 779.855 598.598C779.806 598.794 779.757 599.005 779.705 599.233C779.686 599.456 779.65 599.681 779.599 599.909L775.832 615.599L767.609 616.755L771.38 601.017C771.431 600.789 771.463 600.612 771.474 600.484C771.485 600.357 771.498 600.213 771.511 600.054C771.584 599.225 771.412 598.682 770.997 598.426C770.584 598.138 769.965 598.051 769.141 598.167C768.096 598.314 767.192 598.63 766.429 599.115C765.699 599.596 765.01 600.133 764.363 600.728L760.241 617.79L752.066 618.939ZM811.971 610.803C811.021 610.937 810.096 610.957 809.196 610.863C808.297 610.769 807.468 610.586 806.709 610.315C805.985 610.007 805.345 609.625 804.791 609.168L803.298 611.739L795.978 612.768L804.921 575.475L813.097 574.326L810.137 586.691C811.196 586.038 812.292 585.491 813.427 585.048C814.593 584.601 815.587 584.319 816.411 584.203C818.915 583.851 820.81 584.372 822.096 585.766C823.414 587.155 823.947 589.3 823.693 592.201C823.631 592.902 823.49 593.804 823.268 594.905C823.05 595.975 822.794 597.113 822.5 598.319C821.943 600.759 821.147 602.87 820.115 604.653C819.083 606.435 817.879 607.848 816.505 608.891C815.13 609.934 813.619 610.572 811.971 610.803ZM809.934 604.572C811.044 604.416 812.004 603.809 812.817 602.75C813.632 601.659 814.324 599.83 814.893 597.263C815.03 596.771 815.134 596.3 815.205 595.85C815.275 595.399 815.325 595.014 815.353 594.695C815.484 593.197 815.319 592.213 814.86 591.742C814.4 591.271 813.79 591.089 813.03 591.196C812.364 591.29 811.627 591.488 810.818 591.79C810.043 592.057 809.341 592.391 808.711 592.795L806.055 603.842C806.494 604.19 807.005 604.433 807.587 604.571C808.17 604.71 808.952 604.71 809.934 604.572ZM834.927 607.577C832.455 607.925 830.508 607.82 829.086 607.265C827.698 606.673 826.735 605.69 826.198 604.317C825.692 602.94 825.529 601.231 825.707 599.191C825.783 598.33 825.901 597.511 826.063 596.732C826.228 595.922 826.406 595.141 826.597 594.39C827.292 591.459 828.3 589.05 829.624 587.164C830.947 585.278 832.576 583.821 834.513 582.793C836.452 581.733 838.658 581.029 841.13 580.682C842.365 580.508 843.558 580.467 844.709 580.557C845.862 580.615 846.888 580.865 847.789 581.305C848.692 581.713 849.384 582.387 849.865 583.327C850.378 584.263 850.563 585.543 850.421 587.169C850.262 588.986 849.846 590.525 849.172 591.784C848.502 593.012 847.631 594.016 846.561 594.796C845.526 595.54 844.348 596.13 843.026 596.568C841.739 596.969 840.351 597.275 838.862 597.484C837.816 597.631 836.852 597.735 835.97 597.796C835.123 597.82 834.436 597.807 833.908 597.755C833.86 597.951 833.809 598.178 833.755 598.438C833.735 598.661 833.716 598.884 833.696 599.107C833.615 600.032 833.967 600.659 834.752 600.99C835.537 601.32 836.864 601.354 838.734 601.091L847.099 599.916L845.916 604.852C844.529 605.33 842.873 605.831 840.949 606.353C839.057 606.871 837.05 607.279 834.927 607.577ZM837.258 593.27C838.558 593.087 839.583 592.817 840.334 592.46C841.117 592.098 841.689 591.639 842.05 591.085C842.412 590.53 842.625 589.886 842.689 589.153C842.761 588.324 842.578 587.736 842.139 587.388C841.7 587.041 840.989 586.936 840.007 587.074C839.088 587.203 838.294 587.52 837.624 588.023C836.953 588.527 836.391 589.235 835.935 590.15C835.482 591.032 835.106 592.108 834.808 593.378C835.185 593.356 835.577 593.349 835.983 593.354C836.421 593.356 836.846 593.328 837.258 593.27ZM849.87 605.194L856.161 578.9L863.529 577.865L863.564 581.213C864.509 580.073 865.551 579.076 866.69 578.223C867.863 577.334 869.163 576.79 870.589 576.589C871.064 576.522 871.49 576.478 871.868 576.457C872.245 576.435 872.604 576.448 872.944 576.494L870.985 584.94C870.541 585.003 870.066 585.069 869.559 585.141C869.086 585.176 868.612 585.226 868.137 585.293C866.774 585.485 865.569 585.843 864.522 586.368C863.474 586.893 862.613 587.439 861.937 588.007L858.093 604.038L849.87 605.194Z" fill="white"/>
<path d="M435.92 171.582L433.938 136.816L442.446 135.62L443.266 161.67L457.229 133.543L465.69 132.354L446.187 170.139L435.92 171.582ZM468.236 138.183C467.951 138.223 467.722 138.161 467.548 137.996C467.407 137.827 467.381 137.579 467.473 137.251L468.672 132.123C468.863 131.372 469.307 130.948 470.005 130.85L476.374 129.955C476.723 129.906 476.95 129.984 477.058 130.189C477.168 130.363 477.177 130.613 477.086 130.941L475.886 136.069C475.698 136.788 475.287 137.192 474.653 137.281L468.236 138.183ZM460.166 168.174L466.41 141.887L474.633 140.732L468.342 167.025L460.166 168.174ZM472.885 166.387L479.176 140.093L486.544 139.058L486.579 142.406C487.524 141.265 488.566 140.269 489.705 139.416C490.878 138.527 492.178 137.982 493.604 137.782C494.079 137.715 494.505 137.671 494.883 137.649C495.26 137.628 495.619 137.64 495.959 137.687L494 146.133C493.556 146.195 493.081 146.262 492.574 146.334C492.101 146.368 491.627 146.419 491.152 146.486C489.789 146.678 488.584 147.036 487.537 147.561C486.489 148.086 485.628 148.632 484.952 149.199L481.108 165.231L472.885 166.387ZM504.898 161.887C502.205 162.266 500.219 162.073 498.94 161.308C497.664 160.511 497.115 159.093 497.293 157.053C497.341 156.511 497.43 155.853 497.56 155.079C497.69 154.305 497.876 153.428 498.119 152.45L500.492 143.568L496.547 144.122L497.862 138.742L502.396 136.83L505.214 129.302L511.726 128.387L509.954 135.768L515.515 134.986L513.944 141.677L508.382 142.459L506.247 151.307C506.161 151.571 506.067 151.931 505.964 152.386C505.862 152.841 505.797 153.228 505.769 153.547C505.71 154.217 505.843 154.67 506.166 154.908C506.493 155.114 507.002 155.2 507.693 155.166L510.52 155.052L509.034 161.306L504.898 161.887ZM520.749 159.943C518.562 160.25 517.025 159.931 516.138 158.985C515.25 158.04 514.889 156.626 515.053 154.745C515.115 154.044 515.182 153.452 515.256 152.97C515.364 152.451 515.469 151.963 515.571 151.508L519.697 134.398L527.873 133.249L524.081 149.226C524.035 149.39 524.007 149.536 523.996 149.663C523.987 149.759 523.975 149.902 523.958 150.093C523.886 150.922 524.074 151.447 524.525 151.667C525.007 151.883 525.58 151.944 526.246 151.85C527.228 151.712 528.115 151.414 528.906 150.957C529.7 150.467 530.454 149.905 531.166 149.269L535.241 132.214L543.464 131.058L537.173 157.352L529.853 158.38L529.599 155.913C528.659 156.643 527.759 157.273 526.899 157.804C526.038 158.334 525.123 158.777 524.153 159.134C523.215 159.486 522.08 159.756 520.749 159.943ZM549.445 155.91C548.241 156.079 547.142 155.935 546.149 155.476C545.191 154.981 544.452 154.124 543.933 152.906C543.445 151.684 543.293 150.021 543.477 147.917C543.561 146.961 543.711 145.963 543.927 144.926C544.175 143.883 544.374 143.037 544.525 142.386C545.171 139.65 546.109 137.33 547.34 135.425C548.603 133.516 550.206 132 552.151 130.876C554.131 129.716 556.483 128.945 559.208 128.562C560.761 128.344 562.238 128.278 563.639 128.364C565.042 128.419 566.294 128.605 567.393 128.923C568.494 129.209 569.399 129.601 570.107 130.1L564.49 153.512L557.17 154.541L556.917 152.074C556.437 152.55 555.781 153.068 554.95 153.625C554.153 154.146 553.265 154.633 552.287 155.086C551.343 155.502 550.395 155.777 549.445 155.91ZM554.157 148.73C555.013 148.61 555.773 148.33 556.437 147.89C557.134 147.446 557.719 147.017 558.193 146.604L560.867 135.366C560.685 135.297 560.362 135.232 559.898 135.172C559.433 135.111 558.884 135.125 558.251 135.214C557.205 135.361 556.313 135.723 555.574 136.299C554.835 136.875 554.206 137.625 553.687 138.548C553.2 139.466 552.808 140.545 552.512 141.783C552.324 142.502 552.17 143.185 552.051 143.831C551.934 144.446 551.861 144.928 551.83 145.279C551.741 146.299 551.853 147.165 552.166 147.877C552.511 148.584 553.175 148.868 554.157 148.73ZM578.524 151.54C575.799 151.923 573.788 151.655 572.491 150.735C571.226 149.811 570.67 148.472 570.824 146.719C570.874 146.145 570.92 145.619 570.962 145.141C571.038 144.626 571.127 144.141 571.23 143.686L578.008 115.576L586.184 114.427L580.179 139.594C580.131 139.79 580.055 140.116 579.953 140.571C579.851 141.026 579.748 141.481 579.646 141.936C579.578 142.355 579.531 142.708 579.506 142.995C579.434 143.824 579.575 144.355 579.93 144.589C580.317 144.818 580.871 144.929 581.591 144.922L583.135 144.988L581.709 151.092L578.524 151.54ZM597.112 148.928L605.825 112.659L619.467 110.742C621.051 110.519 622.446 110.496 623.651 110.673C624.856 110.85 625.839 111.247 626.599 111.865C627.393 112.446 627.962 113.279 628.305 114.364C628.648 115.449 628.749 116.805 628.606 118.431C628.567 118.877 628.492 119.376 628.382 119.926C628.305 120.441 628.194 120.992 628.049 121.579C627.685 123.236 627.185 124.66 626.549 125.852C625.915 127.011 625.236 127.972 624.512 128.735C623.82 129.494 623.123 130.127 622.421 130.635C621.722 131.111 621.125 131.494 620.631 131.784L623.493 145.22L615.127 146.396L613.003 134.178C612.655 134.227 612.29 134.279 611.91 134.332C611.53 134.386 611.134 134.441 610.722 134.499C610.341 134.553 609.945 134.608 609.533 134.666C609.153 134.72 608.789 134.771 608.44 134.82L605.335 147.772L597.112 148.928ZM610.059 128.122L614.86 127.447C615.905 127.3 616.743 127.025 617.373 126.622C618.003 126.218 618.505 125.675 618.877 124.993C619.284 124.275 619.616 123.347 619.872 122.209C619.958 121.945 620.01 121.701 620.03 121.478C620.052 121.223 620.073 120.984 620.093 120.761C620.148 120.123 620.083 119.613 619.898 119.23C619.712 118.846 619.39 118.592 618.932 118.468C618.476 118.312 617.899 118.282 617.202 118.38L612.211 119.082L610.059 128.122ZM633.825 144.051C631.639 144.359 630.102 144.039 629.214 143.094C628.327 142.148 627.965 140.734 628.13 138.854C628.191 138.152 628.259 137.56 628.332 137.078C628.44 136.559 628.545 136.072 628.648 135.616L632.774 118.506L640.949 117.357L637.157 133.334C637.112 133.498 637.083 133.644 637.072 133.771C637.064 133.867 637.051 134.01 637.034 134.202C636.962 135.03 637.151 135.555 637.601 135.775C638.083 135.991 638.657 136.052 639.322 135.958C640.304 135.82 641.191 135.522 641.982 135.065C642.776 134.575 643.53 134.013 644.243 133.377L648.317 116.322L656.54 115.166L650.249 141.46L642.929 142.488L642.675 140.021C641.735 140.751 640.835 141.382 639.975 141.912C639.115 142.442 638.2 142.886 637.229 143.242C636.291 143.595 635.156 143.864 633.825 144.051ZM654.893 140.807L661.137 114.52L667.981 113.558L668.758 115.952C669.842 115.013 671.104 114.174 672.546 113.436C674.02 112.694 675.628 112.2 677.371 111.955C678.765 111.759 679.916 111.834 680.825 112.178C681.734 112.523 682.388 113.092 682.788 113.886C683.22 114.675 683.387 115.628 683.29 116.744C683.239 117.317 683.151 117.975 683.023 118.718C682.927 119.455 682.663 120.689 682.23 122.418L678.66 137.467L670.437 138.623L673.981 123.861C674.092 123.31 674.176 122.889 674.233 122.598C674.292 122.275 674.329 122.033 674.343 121.874C674.405 121.172 674.262 120.657 673.915 120.328C673.568 119.999 672.919 119.901 671.969 120.035C671.113 120.155 670.274 120.446 669.451 120.908C668.628 121.37 667.875 121.933 667.191 122.596L663.069 139.658L654.893 140.807Z" fill="white"/>
<defs>
<linearGradient id="paint0_linear_1052_307" x1="1062.83" y1="308.173" x2="842.826" y2="167.173" gradientUnits="userSpaceOnUse">
<stop offset="0.302639" stop-color="#E950A0"/>
<stop offset="0.731316" stop-color="#FFDE59"/>
</linearGradient>
<linearGradient id="paint1_linear_1052_307" x1="108.154" y1="428.327" x2="157.276" y2="611.545" gradientUnits="userSpaceOnUse">
<stop stop-color="#9FC9DF"/>
<stop offset="0.68" stop-color="#001099"/>
</linearGradient>
</defs>
</svg>
