<svg width="343" height="116" viewBox="0 0 343 116" fill="none" xmlns="http://www.w3.org/2000/svg">
<path d="M101.051 14.9209L96.4211 7.5509H97.5211L102.161 14.9209H101.051ZM96.4511 14.9209L98.8711 11.0109L99.3811 11.8609L97.5511 14.9209H96.4511ZM99.7211 11.5509L99.2311 10.6709L101.071 7.5509H102.181L99.7211 11.5509ZM105.339 14.9809C105.179 14.9809 104.995 14.9742 104.789 14.9609C104.589 14.9542 104.382 14.9409 104.169 14.9209C103.962 14.9009 103.762 14.8809 103.569 14.8609C103.382 14.8409 103.222 14.8142 103.089 14.7809V14.0009C103.262 14.0142 103.469 14.0276 103.709 14.0409C103.955 14.0542 104.215 14.0642 104.489 14.0709C104.769 14.0776 105.039 14.0809 105.299 14.0809C105.585 14.0809 105.839 14.0542 106.059 14.0009C106.285 13.9476 106.462 13.8476 106.589 13.7009C106.722 13.5542 106.789 13.3476 106.789 13.0809V12.6509C106.789 12.3509 106.705 12.1209 106.539 11.9609C106.379 11.8009 106.132 11.7209 105.799 11.7209H105.049C104.409 11.7209 103.912 11.5809 103.559 11.3009C103.212 11.0209 103.039 10.5409 103.039 9.8609V9.4609C103.039 8.75423 103.229 8.2509 103.609 7.9509C103.995 7.64423 104.542 7.4909 105.249 7.4909C105.482 7.4909 105.732 7.50423 105.999 7.5309C106.265 7.5509 106.525 7.57756 106.779 7.6109C107.032 7.64423 107.242 7.67756 107.409 7.7109V8.4909C107.109 8.4709 106.772 8.4509 106.399 8.4309C106.032 8.40423 105.685 8.3909 105.359 8.3909C105.079 8.3909 104.835 8.42423 104.629 8.4909C104.429 8.5509 104.272 8.6609 104.159 8.8209C104.052 8.9809 103.999 9.20756 103.999 9.5009V9.8009C103.999 10.1609 104.095 10.4109 104.289 10.5509C104.482 10.6909 104.752 10.7609 105.099 10.7609H105.909C106.329 10.7609 106.672 10.8376 106.939 10.9909C107.212 11.1442 107.415 11.3542 107.549 11.6209C107.682 11.8876 107.749 12.1909 107.749 12.5309V13.0509C107.749 13.5709 107.642 13.9709 107.429 14.2509C107.215 14.5309 106.929 14.7242 106.569 14.8309C106.209 14.9309 105.799 14.9809 105.339 14.9809Z" fill="white"/>
<path d="M143.239 14.9809C143.079 14.9809 142.896 14.9742 142.689 14.9609C142.489 14.9542 142.282 14.9409 142.069 14.9209C141.862 14.9009 141.662 14.8809 141.469 14.8609C141.282 14.8409 141.122 14.8142 140.989 14.7809V14.0009C141.162 14.0142 141.369 14.0276 141.609 14.0409C141.856 14.0542 142.116 14.0642 142.389 14.0709C142.669 14.0776 142.939 14.0809 143.199 14.0809C143.486 14.0809 143.739 14.0542 143.959 14.0009C144.186 13.9476 144.362 13.8476 144.489 13.7009C144.622 13.5542 144.689 13.3476 144.689 13.0809V12.6509C144.689 12.3509 144.606 12.1209 144.439 11.9609C144.279 11.8009 144.032 11.7209 143.699 11.7209H142.949C142.309 11.7209 141.812 11.5809 141.459 11.3009C141.112 11.0209 140.939 10.5409 140.939 9.8609V9.4609C140.939 8.75423 141.129 8.2509 141.509 7.9509C141.896 7.64423 142.442 7.4909 143.149 7.4909C143.382 7.4909 143.632 7.50423 143.899 7.5309C144.166 7.5509 144.426 7.57756 144.679 7.6109C144.932 7.64423 145.142 7.67756 145.309 7.7109V8.4909C145.009 8.4709 144.672 8.4509 144.299 8.4309C143.932 8.40423 143.586 8.3909 143.259 8.3909C142.979 8.3909 142.736 8.42423 142.529 8.4909C142.329 8.5509 142.172 8.6609 142.059 8.8209C141.952 8.9809 141.899 9.20756 141.899 9.5009V9.8009C141.899 10.1609 141.996 10.4109 142.189 10.5509C142.382 10.6909 142.652 10.7609 142.999 10.7609H143.809C144.229 10.7609 144.572 10.8376 144.839 10.9909C145.112 11.1442 145.316 11.3542 145.449 11.6209C145.582 11.8876 145.649 12.1909 145.649 12.5309V13.0509C145.649 13.5709 145.542 13.9709 145.329 14.2509C145.116 14.5309 144.829 14.7242 144.469 14.8309C144.109 14.9309 143.699 14.9809 143.239 14.9809Z" fill="white"/>
<path d="M181.339 14.9209L182.179 7.5509H183.179L185.059 13.7009L186.909 7.5509H187.919L188.779 14.9209H187.809L187.089 8.7809L187.259 8.8009L185.519 14.9209H184.589L182.819 8.8009L182.999 8.7909L182.309 14.9209H181.339Z" fill="white"/>
<path d="M225.755 14.9209C225.442 14.9209 225.165 14.8742 224.925 14.7809C224.692 14.6809 224.512 14.5176 224.385 14.2909C224.258 14.0576 224.195 13.7476 224.195 13.3609V7.5509H225.205V13.2109C225.205 13.4242 225.242 13.5909 225.315 13.7109C225.388 13.8242 225.485 13.9009 225.605 13.9409C225.725 13.9809 225.855 14.0009 225.995 14.0009H228.545V14.9209H225.755Z" fill="white"/>
<path d="M265.93 14.9209L261.3 7.5509H262.4L267.04 14.9209H265.93ZM261.33 14.9209L263.75 11.0109L264.26 11.8609L262.43 14.9209H261.33ZM264.6 11.5509L264.11 10.6709L265.95 7.5509H267.06L264.6 11.5509ZM269.647 14.9209C269.334 14.9209 269.057 14.8742 268.817 14.7809C268.584 14.6809 268.404 14.5176 268.277 14.2909C268.151 14.0576 268.087 13.7476 268.087 13.3609V7.5509H269.097V13.2109C269.097 13.4242 269.134 13.5909 269.207 13.7109C269.281 13.8242 269.377 13.9009 269.497 13.9409C269.617 13.9809 269.747 14.0009 269.887 14.0009H272.437V14.9209H269.647Z" fill="white"/>
<path d="M306.243 14.9209L301.613 7.5509H302.713L307.353 14.9209H306.243ZM301.642 14.9209L304.063 11.0109L304.573 11.8609L302.743 14.9209H301.642ZM304.913 11.5509L304.423 10.6709L306.263 7.5509H307.373L304.913 11.5509ZM312.6 14.9209L307.97 7.5509H309.07L313.71 14.9209H312.6ZM308 14.9209L310.42 11.0109L310.93 11.8609L309.1 14.9209H308ZM311.27 11.5509L310.78 10.6709L312.62 7.5509H313.73L311.27 11.5509ZM316.317 14.9209C316.004 14.9209 315.727 14.8742 315.487 14.7809C315.254 14.6809 315.074 14.5176 314.947 14.2909C314.821 14.0576 314.757 13.7476 314.757 13.3609V7.5509H315.767V13.2109C315.767 13.4242 315.804 13.5909 315.877 13.7109C315.951 13.8242 316.047 13.9009 316.167 13.9409C316.287 13.9809 316.417 14.0009 316.557 14.0009H319.107V14.9209H316.317Z" fill="white"/>
<path d="M2.99953 50.9707V43.6007H5.98953C6.20953 43.6007 6.4362 43.6307 6.66953 43.6907C6.90286 43.744 7.1162 43.854 7.30953 44.0207C7.50953 44.1807 7.66953 44.4207 7.78953 44.7407C7.90953 45.0607 7.96953 45.484 7.96953 46.0107C7.96953 46.5374 7.9062 46.964 7.77953 47.2907C7.65953 47.6174 7.49953 47.8674 7.29953 48.0407C7.09953 48.214 6.88286 48.3307 6.64953 48.3907C6.4162 48.4507 6.19286 48.4807 5.97953 48.4807C5.87286 48.4807 5.7262 48.4774 5.53953 48.4707C5.35953 48.464 5.16953 48.454 4.96953 48.4407C4.76953 48.4274 4.58286 48.414 4.40953 48.4007C4.2362 48.3874 4.10286 48.374 4.00953 48.3607V50.9707H2.99953ZM4.00953 47.5807H5.83953C6.05286 47.5807 6.24286 47.534 6.40953 47.4407C6.58286 47.3407 6.7162 47.1807 6.80953 46.9607C6.90953 46.734 6.95953 46.4207 6.95953 46.0207C6.95953 45.6274 6.90953 45.3207 6.80953 45.1007C6.7162 44.8807 6.58953 44.7274 6.42953 44.6407C6.26953 44.5474 6.09286 44.5007 5.89953 44.5007H4.00953V47.5807ZM10.1333 51.0307C9.73995 51.0307 9.41328 50.914 9.15328 50.6807C8.89995 50.4407 8.77328 50.1107 8.77328 49.6907V49.2707C8.77328 48.8574 8.91328 48.5207 9.19328 48.2607C9.47995 47.994 9.90995 47.8607 10.4833 47.8607H12.1533V47.3007C12.1533 47.094 12.1166 46.9207 12.0433 46.7807C11.9766 46.634 11.8499 46.524 11.6633 46.4507C11.4766 46.3774 11.1999 46.3407 10.8333 46.3407H9.19328V45.7507C9.43328 45.6974 9.71328 45.6507 10.0333 45.6107C10.3599 45.5707 10.7399 45.5474 11.1733 45.5407C11.6133 45.5407 11.9799 45.5974 12.2733 45.7107C12.5733 45.8174 12.7966 45.9974 12.9433 46.2507C13.0899 46.4974 13.1633 46.8274 13.1633 47.2407V50.9707H12.3733L12.2033 50.3807C12.1633 50.4074 12.0799 50.4574 11.9533 50.5307C11.8266 50.5974 11.6633 50.6707 11.4633 50.7507C11.2699 50.8307 11.0566 50.8974 10.8233 50.9507C10.5966 51.004 10.3666 51.0307 10.1333 51.0307ZM10.5933 50.3007C10.6933 50.3074 10.8099 50.2974 10.9433 50.2707C11.0833 50.244 11.2199 50.214 11.3533 50.1807C11.4933 50.1407 11.6199 50.1007 11.7333 50.0607C11.8533 50.0207 11.9499 49.9874 12.0233 49.9607C12.1033 49.9274 12.1466 49.9074 12.1533 49.9007V48.3607L10.7533 48.4207C10.4066 48.4407 10.1566 48.5274 10.0033 48.6807C9.85661 48.834 9.78328 49.034 9.78328 49.2807V49.5207C9.78328 49.714 9.82328 49.8707 9.90328 49.9907C9.98328 50.104 10.0833 50.184 10.2033 50.2307C10.3299 50.2774 10.4599 50.3007 10.5933 50.3007ZM14.5223 50.9707V45.6207H15.3223L15.5223 46.2007C15.7623 46.0274 16.0456 45.874 16.3723 45.7407C16.7056 45.6007 17.0489 45.5307 17.4023 45.5307C17.8023 45.5307 18.1223 45.6174 18.3623 45.7907C18.6089 45.9574 18.7856 46.1807 18.8923 46.4607C18.9989 46.7407 19.0523 47.044 19.0523 47.3707V50.9707H18.0523V47.4907C18.0523 47.2774 18.0089 47.094 17.9223 46.9407C17.8423 46.7807 17.7289 46.6574 17.5823 46.5707C17.4356 46.484 17.2556 46.4407 17.0423 46.4407C16.8423 46.4407 16.6556 46.4607 16.4823 46.5007C16.3156 46.5407 16.1556 46.5974 16.0023 46.6707C15.8489 46.7374 15.6889 46.8207 15.5223 46.9207V50.9707H14.5223ZM20.5507 44.7207C20.4374 44.7207 20.3807 44.664 20.3807 44.5507V43.7107C20.3807 43.5907 20.4374 43.5307 20.5507 43.5307H21.3007C21.354 43.5307 21.394 43.5474 21.4207 43.5807C21.4474 43.614 21.4607 43.6574 21.4607 43.7107V44.5507C21.4607 44.664 21.4074 44.7207 21.3007 44.7207H20.5507ZM20.4207 53.3407V45.6207H21.4207V50.8407C21.4207 51.3007 21.3974 51.754 21.3507 52.2007C21.304 52.654 21.244 53.034 21.1707 53.3407H20.4207ZM23.893 51.0307C23.4997 51.0307 23.173 50.914 22.913 50.6807C22.6597 50.4407 22.533 50.1107 22.533 49.6907V49.2707C22.533 48.8574 22.673 48.5207 22.953 48.2607C23.2397 47.994 23.6697 47.8607 24.243 47.8607H25.913V47.3007C25.913 47.094 25.8764 46.9207 25.803 46.7807C25.7364 46.634 25.6097 46.524 25.423 46.4507C25.2364 46.3774 24.9597 46.3407 24.593 46.3407H22.953V45.7507C23.193 45.6974 23.473 45.6507 23.793 45.6107C24.1197 45.5707 24.4997 45.5474 24.933 45.5407C25.373 45.5407 25.7397 45.5974 26.033 45.7107C26.333 45.8174 26.5564 45.9974 26.703 46.2507C26.8497 46.4974 26.923 46.8274 26.923 47.2407V50.9707H26.133L25.963 50.3807C25.923 50.4074 25.8397 50.4574 25.713 50.5307C25.5864 50.5974 25.423 50.6707 25.223 50.7507C25.0297 50.8307 24.8164 50.8974 24.583 50.9507C24.3564 51.004 24.1264 51.0307 23.893 51.0307ZM24.353 50.3007C24.453 50.3074 24.5697 50.2974 24.703 50.2707C24.843 50.244 24.9797 50.214 25.113 50.1807C25.253 50.1407 25.3797 50.1007 25.493 50.0607C25.613 50.0207 25.7097 49.9874 25.783 49.9607C25.863 49.9274 25.9064 49.9074 25.913 49.9007V48.3607L24.513 48.4207C24.1664 48.4407 23.9164 48.5274 23.763 48.6807C23.6164 48.834 23.543 49.034 23.543 49.2807V49.5207C23.543 49.714 23.583 49.8707 23.663 49.9907C23.743 50.104 23.843 50.184 23.963 50.2307C24.0897 50.2774 24.2197 50.3007 24.353 50.3007ZM28.282 50.9707V45.6207H29.082L29.282 46.2007C29.522 46.0274 29.8054 45.874 30.132 45.7407C30.4654 45.6007 30.8087 45.5307 31.162 45.5307C31.562 45.5307 31.882 45.6174 32.122 45.7907C32.3687 45.9574 32.5454 46.1807 32.652 46.4607C32.7587 46.7407 32.812 47.044 32.812 47.3707V50.9707H31.812V47.4907C31.812 47.2774 31.7687 47.094 31.682 46.9407C31.602 46.7807 31.4887 46.6574 31.342 46.5707C31.1954 46.484 31.0154 46.4407 30.802 46.4407C30.602 46.4407 30.4154 46.4607 30.242 46.5007C30.0754 46.5407 29.9154 46.5974 29.762 46.6707C29.6087 46.7374 29.4487 46.8207 29.282 46.9207V50.9707H28.282ZM35.5105 53.4307C35.1705 53.4307 34.8671 53.3807 34.6005 53.2807C34.3405 53.1874 34.1338 53.0407 33.9805 52.8407C33.8271 52.6474 33.7505 52.4074 33.7505 52.1207V51.9007C33.7505 51.6007 33.8338 51.3474 34.0005 51.1407C34.1738 50.9407 34.3905 50.7874 34.6505 50.6807C34.9105 50.574 35.1805 50.5207 35.4605 50.5207L35.7305 50.8907C35.5505 50.8907 35.3805 50.9174 35.2205 50.9707C35.0671 51.0307 34.9405 51.1207 34.8405 51.2407C34.7471 51.3674 34.7005 51.5274 34.7005 51.7207V51.9107C34.7005 52.1907 34.7938 52.394 34.9805 52.5207C35.1738 52.6474 35.4371 52.7107 35.7705 52.7107H36.9405C37.2938 52.7107 37.5738 52.6407 37.7805 52.5007C37.9871 52.3674 38.0905 52.1574 38.0905 51.8707V51.6807C38.0905 51.5207 38.0538 51.3807 37.9805 51.2607C37.9138 51.1407 37.8038 51.0474 37.6505 50.9807C37.4971 50.9207 37.2871 50.8907 37.0205 50.8907H35.5405C35.0671 50.8907 34.7071 50.794 34.4605 50.6007C34.2138 50.4074 34.0905 50.164 34.0905 49.8707C34.0905 49.604 34.1671 49.3907 34.3205 49.2307C34.4805 49.064 34.7038 48.9507 34.9905 48.8907C34.7505 48.784 34.5605 48.6474 34.4205 48.4807C34.2871 48.314 34.1938 48.134 34.1405 47.9407C34.0871 47.7407 34.0605 47.5407 34.0605 47.3407C34.0605 46.934 34.1438 46.604 34.3105 46.3507C34.4771 46.0974 34.7171 45.9107 35.0305 45.7907C35.3505 45.6707 35.7305 45.6107 36.1705 45.6107H39.0505V46.1807L37.9605 46.2907C38.0405 46.3507 38.1271 46.4307 38.2205 46.5307C38.3138 46.624 38.3938 46.754 38.4605 46.9207C38.5271 47.0874 38.5605 47.3074 38.5605 47.5807C38.5605 47.8674 38.4971 48.134 38.3705 48.3807C38.2505 48.6274 38.0505 48.8274 37.7705 48.9807C37.4971 49.134 37.1238 49.2107 36.6505 49.2107H35.7705C35.5171 49.2107 35.3171 49.2474 35.1705 49.3207C35.0238 49.394 34.9505 49.524 34.9505 49.7107C34.9505 49.864 35.0071 49.9707 35.1205 50.0307C35.2338 50.0907 35.3538 50.1207 35.4805 50.1207H37.1705C37.5771 50.1207 37.9171 50.174 38.1905 50.2807C38.4705 50.3874 38.6805 50.5507 38.8205 50.7707C38.9605 50.9907 39.0305 51.2774 39.0305 51.6307V51.8207C39.0305 52.3274 38.8638 52.7207 38.5305 53.0007C38.2038 53.2874 37.7071 53.4307 37.0405 53.4307H35.5105ZM35.9505 48.4407H36.5405C36.8405 48.4407 37.0671 48.3974 37.2205 48.3107C37.3805 48.2174 37.4905 48.0974 37.5505 47.9507C37.6105 47.804 37.6405 47.6407 37.6405 47.4607C37.6405 47.194 37.5971 46.984 37.5105 46.8307C37.4238 46.6707 37.3038 46.5574 37.1505 46.4907C37.0038 46.4174 36.8238 46.3807 36.6105 46.3807H36.0505C35.7105 46.3807 35.4438 46.4574 35.2505 46.6107C35.0638 46.764 34.9705 47.0274 34.9705 47.4007C34.9705 47.7674 35.0571 48.034 35.2305 48.2007C35.4038 48.3607 35.6438 48.4407 35.9505 48.4407ZM42.648 50.9707V43.6007H45.388C46.048 43.6007 46.538 43.7607 46.858 44.0807C47.1846 44.4007 47.348 44.874 47.348 45.5007C47.348 45.8074 47.3013 46.074 47.208 46.3007C47.1213 46.5207 46.998 46.704 46.838 46.8507C46.6846 46.9907 46.5113 47.0874 46.318 47.1407C46.458 47.1807 46.6013 47.2407 46.748 47.3207C46.9013 47.4007 47.0413 47.514 47.168 47.6607C47.3013 47.8007 47.408 47.9774 47.488 48.1907C47.568 48.3974 47.608 48.644 47.608 48.9307C47.608 49.444 47.5213 49.8507 47.348 50.1507C47.1813 50.444 46.9413 50.654 46.628 50.7807C46.3146 50.9074 45.938 50.9707 45.498 50.9707H42.648ZM43.658 50.0707H45.468C45.708 50.0707 45.9146 50.0307 46.088 49.9507C46.2613 49.8707 46.398 49.7374 46.498 49.5507C46.598 49.364 46.648 49.1007 46.648 48.7607C46.648 48.514 46.5946 48.304 46.488 48.1307C46.3813 47.9507 46.238 47.814 46.058 47.7207C45.8846 47.6274 45.688 47.5807 45.468 47.5807H43.658V50.0707ZM43.658 46.8007H45.418C45.7046 46.8007 45.9346 46.6974 46.108 46.4907C46.288 46.2774 46.3813 46.0007 46.388 45.6607C46.4013 45.2274 46.3113 44.9274 46.118 44.7607C45.9246 44.5874 45.678 44.5007 45.378 44.5007H43.658V46.8007ZM49.8013 51.0307C49.4079 51.0307 49.0813 50.914 48.8213 50.6807C48.5679 50.4407 48.4413 50.1107 48.4413 49.6907V49.2707C48.4413 48.8574 48.5813 48.5207 48.8613 48.2607C49.1479 47.994 49.5779 47.8607 50.1513 47.8607H51.8213V47.3007C51.8213 47.094 51.7846 46.9207 51.7113 46.7807C51.6446 46.634 51.5179 46.524 51.3313 46.4507C51.1446 46.3774 50.8679 46.3407 50.5013 46.3407H48.8613V45.7507C49.1013 45.6974 49.3813 45.6507 49.7013 45.6107C50.0279 45.5707 50.4079 45.5474 50.8413 45.5407C51.2813 45.5407 51.6479 45.5974 51.9413 45.7107C52.2413 45.8174 52.4646 45.9974 52.6113 46.2507C52.7579 46.4974 52.8313 46.8274 52.8313 47.2407V50.9707H52.0413L51.8713 50.3807C51.8313 50.4074 51.7479 50.4574 51.6213 50.5307C51.4946 50.5974 51.3313 50.6707 51.1313 50.7507C50.9379 50.8307 50.7246 50.8974 50.4913 50.9507C50.2646 51.004 50.0346 51.0307 49.8013 51.0307ZM50.2613 50.3007C50.3613 50.3074 50.4779 50.2974 50.6113 50.2707C50.7513 50.244 50.8879 50.214 51.0213 50.1807C51.1613 50.1407 51.2879 50.1007 51.4013 50.0607C51.5213 50.0207 51.6179 49.9874 51.6913 49.9607C51.7713 49.9274 51.8146 49.9074 51.8213 49.9007V48.3607L50.4213 48.4207C50.0746 48.4407 49.8246 48.5274 49.6713 48.6807C49.5246 48.834 49.4513 49.034 49.4513 49.2807V49.5207C49.4513 49.714 49.4913 49.8707 49.5713 49.9907C49.6513 50.104 49.7513 50.184 49.8713 50.2307C49.9979 50.2774 50.1279 50.3007 50.2613 50.3007ZM55.9302 51.0307C55.4969 51.0307 55.1369 50.9374 54.8502 50.7507C54.5702 50.564 54.3602 50.274 54.2202 49.8807C54.0802 49.4807 54.0102 48.9674 54.0102 48.3407C54.0102 47.6807 54.0736 47.1474 54.2002 46.7407C54.3336 46.3274 54.5469 46.0274 54.8402 45.8407C55.1336 45.6474 55.5302 45.5507 56.0302 45.5507C56.3102 45.5507 56.5869 45.5807 56.8602 45.6407C57.1402 45.7007 57.3836 45.7674 57.5902 45.8407V43.3407H58.5902V50.9707H57.7702L57.5902 50.4407C57.4836 50.534 57.3369 50.6274 57.1502 50.7207C56.9636 50.8074 56.7636 50.8807 56.5502 50.9407C56.3369 51.0007 56.1302 51.0307 55.9302 51.0307ZM56.2502 50.2107C56.5236 50.2107 56.7702 50.1674 56.9902 50.0807C57.2169 49.994 57.4169 49.904 57.5902 49.8107V46.5607C57.3836 46.5007 57.1802 46.4474 56.9802 46.4007C56.7869 46.3474 56.5702 46.3207 56.3302 46.3207C56.0169 46.3207 55.7636 46.3774 55.5702 46.4907C55.3769 46.604 55.2369 46.804 55.1502 47.0907C55.0636 47.3774 55.0202 47.7774 55.0202 48.2907C55.0202 48.764 55.0602 49.144 55.1402 49.4307C55.2202 49.7107 55.3502 49.9107 55.5302 50.0307C55.7169 50.1507 55.9569 50.2107 56.2502 50.2107ZM61.0317 51.0307C60.6384 51.0307 60.3117 50.914 60.0517 50.6807C59.7984 50.4407 59.6717 50.1107 59.6717 49.6907V49.2707C59.6717 48.8574 59.8117 48.5207 60.0917 48.2607C60.3784 47.994 60.8084 47.8607 61.3817 47.8607H63.0517V47.3007C63.0517 47.094 63.0151 46.9207 62.9417 46.7807C62.8751 46.634 62.7484 46.524 62.5617 46.4507C62.3751 46.3774 62.0984 46.3407 61.7317 46.3407H60.0917V45.7507C60.3317 45.6974 60.6117 45.6507 60.9317 45.6107C61.2584 45.5707 61.6384 45.5474 62.0717 45.5407C62.5117 45.5407 62.8784 45.5974 63.1717 45.7107C63.4717 45.8174 63.6951 45.9974 63.8417 46.2507C63.9884 46.4974 64.0617 46.8274 64.0617 47.2407V50.9707H63.2717L63.1017 50.3807C63.0617 50.4074 62.9784 50.4574 62.8517 50.5307C62.7251 50.5974 62.5617 50.6707 62.3617 50.7507C62.1684 50.8307 61.9551 50.8974 61.7217 50.9507C61.4951 51.004 61.2651 51.0307 61.0317 51.0307ZM61.4917 50.3007C61.5917 50.3074 61.7084 50.2974 61.8417 50.2707C61.9817 50.244 62.1184 50.214 62.2517 50.1807C62.3917 50.1407 62.5184 50.1007 62.6317 50.0607C62.7517 50.0207 62.8484 49.9874 62.9217 49.9607C63.0017 49.9274 63.0451 49.9074 63.0517 49.9007V48.3607L61.6517 48.4207C61.3051 48.4407 61.0551 48.5274 60.9017 48.6807C60.7551 48.834 60.6817 49.034 60.6817 49.2807V49.5207C60.6817 49.714 60.7217 49.8707 60.8017 49.9907C60.8817 50.104 60.9817 50.184 61.1017 50.2307C61.2284 50.2774 61.3584 50.3007 61.4917 50.3007ZM65.4207 50.9707V45.6207H66.2207L66.4207 46.2007C66.6607 46.0274 66.944 45.874 67.2707 45.7407C67.604 45.6007 67.9474 45.5307 68.3007 45.5307C68.7007 45.5307 69.0207 45.6174 69.2607 45.7907C69.5074 45.9574 69.684 46.1807 69.7907 46.4607C69.8974 46.7407 69.9507 47.044 69.9507 47.3707V50.9707H68.9507V47.4907C68.9507 47.2774 68.9074 47.094 68.8207 46.9407C68.7407 46.7807 68.6274 46.6574 68.4807 46.5707C68.334 46.484 68.154 46.4407 67.9407 46.4407C67.7407 46.4407 67.554 46.4607 67.3807 46.5007C67.214 46.5407 67.054 46.5974 66.9007 46.6707C66.7474 46.7374 66.5874 46.8207 66.4207 46.9207V50.9707H65.4207Z" fill="white"/>
<path d="M4.55953 90.3223C4.2462 90.3223 3.96953 90.2756 3.72953 90.1823C3.4962 90.0823 3.3162 89.9189 3.18953 89.6923C3.06286 89.4589 2.99953 89.1489 2.99953 88.7623V82.9523H4.00953V88.6123C4.00953 88.8256 4.0462 88.9923 4.11953 89.1123C4.19286 89.2256 4.28953 89.3023 4.40953 89.3423C4.52953 89.3823 4.65953 89.4023 4.79953 89.4023H7.34953V90.3223H4.55953ZM10.4116 90.3823C9.8449 90.3823 9.39156 90.2989 9.05156 90.1323C8.71823 89.9656 8.47823 89.6856 8.33156 89.2923C8.19156 88.8923 8.12156 88.3423 8.12156 87.6423C8.12156 86.9289 8.19156 86.3756 8.33156 85.9823C8.47823 85.5823 8.71823 85.3023 9.05156 85.1423C9.3849 84.9823 9.8349 84.9023 10.4016 84.9023C10.8949 84.9023 11.2916 84.9556 11.5916 85.0623C11.8982 85.1623 12.1216 85.3456 12.2616 85.6123C12.4082 85.8723 12.4816 86.2356 12.4816 86.7023C12.4816 87.0289 12.4149 87.2889 12.2816 87.4823C12.1549 87.6756 11.9716 87.8156 11.7316 87.9023C11.4982 87.9889 11.2182 88.0323 10.8916 88.0323H9.12156C9.12823 88.4189 9.17156 88.7289 9.25156 88.9623C9.33823 89.1889 9.48823 89.3556 9.70156 89.4623C9.92156 89.5623 10.2416 89.6123 10.6616 89.6123H12.3316V90.2123C12.0449 90.2523 11.7516 90.2889 11.4516 90.3223C11.1516 90.3623 10.8049 90.3823 10.4116 90.3823ZM9.11156 87.4023H10.8016C11.0682 87.4023 11.2649 87.3523 11.3916 87.2523C11.5182 87.1523 11.5816 86.9689 11.5816 86.7023C11.5816 86.4356 11.5416 86.2256 11.4616 86.0723C11.3882 85.9189 11.2649 85.8089 11.0916 85.7423C10.9182 85.6756 10.6882 85.6423 10.4016 85.6423C10.0749 85.6423 9.8149 85.6923 9.62156 85.7923C9.4349 85.8923 9.30156 86.0689 9.22156 86.3223C9.14823 86.5756 9.11156 86.9356 9.11156 87.4023ZM16.422 90.3823C16.1753 90.3823 15.9453 90.3523 15.732 90.2923C15.5253 90.2323 15.3353 90.1589 15.162 90.0723C14.9953 89.9789 14.842 89.8856 14.702 89.7923L14.522 90.3223H13.702V82.6923H14.702V85.4223C14.9486 85.2889 15.222 85.1689 15.522 85.0623C15.8286 84.9556 16.112 84.9023 16.372 84.9023C16.812 84.9023 17.172 84.9956 17.452 85.1823C17.732 85.3623 17.9386 85.6556 18.072 86.0623C18.212 86.4689 18.282 87.0123 18.282 87.6923C18.282 88.2589 18.2186 88.7456 18.092 89.1523C17.9653 89.5523 17.7653 89.8589 17.492 90.0723C17.2186 90.2789 16.862 90.3823 16.422 90.3823ZM16.072 89.5523C16.332 89.5523 16.5486 89.4889 16.722 89.3623C16.902 89.2289 17.0386 89.0223 17.132 88.7423C17.232 88.4556 17.282 88.0889 17.282 87.6423C17.282 87.0956 17.2286 86.6856 17.122 86.4123C17.0153 86.1389 16.872 85.9556 16.692 85.8623C16.512 85.7689 16.3053 85.7223 16.072 85.7223C15.8053 85.7223 15.562 85.7623 15.342 85.8423C15.1286 85.9156 14.9153 86.0089 14.702 86.1223V89.1723C14.882 89.2656 15.0853 89.3523 15.312 89.4323C15.5386 89.5123 15.792 89.5523 16.072 89.5523ZM20.5727 90.3823C20.1794 90.3823 19.8527 90.2656 19.5927 90.0323C19.3394 89.7923 19.2127 89.4623 19.2127 89.0423V88.6223C19.2127 88.2089 19.3527 87.8723 19.6327 87.6123C19.9194 87.3456 20.3494 87.2123 20.9227 87.2123H22.5927V86.6523C22.5927 86.4456 22.5561 86.2723 22.4827 86.1323C22.4161 85.9856 22.2894 85.8756 22.1027 85.8023C21.9161 85.7289 21.6394 85.6923 21.2727 85.6923H19.6327V85.1023C19.8727 85.0489 20.1527 85.0023 20.4727 84.9623C20.7994 84.9223 21.1794 84.8989 21.6127 84.8923C22.0527 84.8923 22.4194 84.9489 22.7127 85.0623C23.0127 85.1689 23.2361 85.3489 23.3827 85.6023C23.5294 85.8489 23.6027 86.1789 23.6027 86.5923V90.3223H22.8127L22.6427 89.7323C22.6027 89.7589 22.5194 89.8089 22.3927 89.8823C22.2661 89.9489 22.1027 90.0223 21.9027 90.1023C21.7094 90.1823 21.4961 90.2489 21.2627 90.3023C21.0361 90.3556 20.8061 90.3823 20.5727 90.3823ZM21.0327 89.6523C21.1327 89.6589 21.2494 89.6489 21.3827 89.6223C21.5227 89.5956 21.6594 89.5656 21.7927 89.5323C21.9327 89.4923 22.0594 89.4523 22.1727 89.4123C22.2927 89.3723 22.3894 89.3389 22.4627 89.3123C22.5427 89.2789 22.5861 89.2589 22.5927 89.2523V87.7123L21.1927 87.7723C20.8461 87.7923 20.5961 87.8789 20.4427 88.0323C20.2961 88.1856 20.2227 88.3856 20.2227 88.6323V88.8723C20.2227 89.0656 20.2627 89.2223 20.3427 89.3423C20.4227 89.4556 20.5227 89.5356 20.6427 89.5823C20.7694 89.6289 20.8994 89.6523 21.0327 89.6523ZM24.9617 90.3223V84.9723H25.7317L25.9617 85.8723C26.1884 85.5989 26.4417 85.3689 26.7217 85.1823C27.0017 84.9956 27.3284 84.9023 27.7017 84.9023C27.7884 84.9023 27.8717 84.9089 27.9517 84.9223C28.0317 84.9289 28.1084 84.9423 28.1817 84.9623V85.9923C28.0884 85.9789 27.9917 85.9689 27.8917 85.9623C27.7917 85.9489 27.6884 85.9423 27.5817 85.9423C27.3551 85.9423 27.1517 85.9689 26.9717 86.0223C26.7917 86.0756 26.6184 86.1589 26.4517 86.2723C26.2917 86.3789 26.1284 86.5123 25.9617 86.6723V90.3223H24.9617ZM31.8081 90.3223V82.9523H34.5481C35.2081 82.9523 35.6981 83.1123 36.0181 83.4323C36.3448 83.7523 36.5081 84.2256 36.5081 84.8523C36.5081 85.1589 36.4615 85.4256 36.3681 85.6523C36.2815 85.8723 36.1581 86.0556 35.9981 86.2023C35.8448 86.3423 35.6715 86.4389 35.4781 86.4923C35.6181 86.5323 35.7615 86.5923 35.9081 86.6723C36.0615 86.7523 36.2015 86.8656 36.3281 87.0123C36.4615 87.1523 36.5681 87.3289 36.6481 87.5423C36.7281 87.7489 36.7681 87.9956 36.7681 88.2823C36.7681 88.7956 36.6815 89.2023 36.5081 89.5023C36.3415 89.7956 36.1015 90.0056 35.7881 90.1323C35.4748 90.2589 35.0981 90.3223 34.6581 90.3223H31.8081ZM32.8181 89.4223H34.6281C34.8681 89.4223 35.0748 89.3823 35.2481 89.3023C35.4215 89.2223 35.5581 89.0889 35.6581 88.9023C35.7581 88.7156 35.8081 88.4523 35.8081 88.1123C35.8081 87.8656 35.7548 87.6556 35.6481 87.4823C35.5415 87.3023 35.3981 87.1656 35.2181 87.0723C35.0448 86.9789 34.8481 86.9323 34.6281 86.9323H32.8181V89.4223ZM32.8181 86.1523H34.5781C34.8648 86.1523 35.0948 86.0489 35.2681 85.8423C35.4481 85.6289 35.5415 85.3523 35.5481 85.0123C35.5615 84.5789 35.4715 84.2789 35.2781 84.1123C35.0848 83.9389 34.8381 83.8523 34.5381 83.8523H32.8181V86.1523ZM38.9614 90.3823C38.5681 90.3823 38.2414 90.2656 37.9814 90.0323C37.7281 89.7923 37.6014 89.4623 37.6014 89.0423V88.6223C37.6014 88.2089 37.7414 87.8723 38.0214 87.6123C38.3081 87.3456 38.7381 87.2123 39.3114 87.2123H40.9814V86.6523C40.9814 86.4456 40.9447 86.2723 40.8714 86.1323C40.8047 85.9856 40.6781 85.8756 40.4914 85.8023C40.3047 85.7289 40.0281 85.6923 39.6614 85.6923H38.0214V85.1023C38.2614 85.0489 38.5414 85.0023 38.8614 84.9623C39.1881 84.9223 39.5681 84.8989 40.0014 84.8923C40.4414 84.8923 40.8081 84.9489 41.1014 85.0623C41.4014 85.1689 41.6247 85.3489 41.7714 85.6023C41.9181 85.8489 41.9914 86.1789 41.9914 86.5923V90.3223H41.2014L41.0314 89.7323C40.9914 89.7589 40.9081 89.8089 40.7814 89.8823C40.6547 89.9489 40.4914 90.0223 40.2914 90.1023C40.0981 90.1823 39.8847 90.2489 39.6514 90.3023C39.4247 90.3556 39.1947 90.3823 38.9614 90.3823ZM39.4214 89.6523C39.5214 89.6589 39.6381 89.6489 39.7714 89.6223C39.9114 89.5956 40.0481 89.5656 40.1814 89.5323C40.3214 89.4923 40.4481 89.4523 40.5614 89.4123C40.6814 89.3723 40.7781 89.3389 40.8514 89.3123C40.9314 89.2789 40.9747 89.2589 40.9814 89.2523V87.7123L39.5814 87.7723C39.2347 87.7923 38.9847 87.8789 38.8314 88.0323C38.6847 88.1856 38.6114 88.3856 38.6114 88.6323V88.8723C38.6114 89.0656 38.6514 89.2223 38.7314 89.3423C38.8114 89.4556 38.9114 89.5356 39.0314 89.5823C39.1581 89.6289 39.2881 89.6523 39.4214 89.6523ZM45.0904 90.3823C44.6571 90.3823 44.2971 90.2889 44.0104 90.1023C43.7304 89.9156 43.5204 89.6256 43.3804 89.2323C43.2404 88.8323 43.1704 88.3189 43.1704 87.6923C43.1704 87.0323 43.2337 86.4989 43.3604 86.0923C43.4937 85.6789 43.7071 85.3789 44.0004 85.1923C44.2937 84.9989 44.6904 84.9023 45.1904 84.9023C45.4704 84.9023 45.7471 84.9323 46.0204 84.9923C46.3004 85.0523 46.5437 85.1189 46.7504 85.1923V82.6923H47.7504V90.3223H46.9304L46.7504 89.7923C46.6437 89.8856 46.4971 89.9789 46.3104 90.0723C46.1237 90.1589 45.9237 90.2323 45.7104 90.2923C45.4971 90.3523 45.2904 90.3823 45.0904 90.3823ZM45.4104 89.5623C45.6837 89.5623 45.9304 89.5189 46.1504 89.4323C46.3771 89.3456 46.5771 89.2556 46.7504 89.1623V85.9123C46.5437 85.8523 46.3404 85.7989 46.1404 85.7523C45.9471 85.6989 45.7304 85.6723 45.4904 85.6723C45.1771 85.6723 44.9237 85.7289 44.7304 85.8423C44.5371 85.9556 44.3971 86.1556 44.3104 86.4423C44.2237 86.7289 44.1804 87.1289 44.1804 87.6423C44.1804 88.1156 44.2204 88.4956 44.3004 88.7823C44.3804 89.0623 44.5104 89.2623 44.6904 89.3823C44.8771 89.5023 45.1171 89.5623 45.4104 89.5623ZM50.1919 90.3823C49.7985 90.3823 49.4719 90.2656 49.2119 90.0323C48.9585 89.7923 48.8319 89.4623 48.8319 89.0423V88.6223C48.8319 88.2089 48.9719 87.8723 49.2519 87.6123C49.5385 87.3456 49.9685 87.2123 50.5419 87.2123H52.2119V86.6523C52.2119 86.4456 52.1752 86.2723 52.1019 86.1323C52.0352 85.9856 51.9085 85.8756 51.7219 85.8023C51.5352 85.7289 51.2585 85.6923 50.8919 85.6923H49.2519V85.1023C49.4919 85.0489 49.7719 85.0023 50.0919 84.9623C50.4185 84.9223 50.7985 84.8989 51.2319 84.8923C51.6719 84.8923 52.0385 84.9489 52.3319 85.0623C52.6319 85.1689 52.8552 85.3489 53.0019 85.6023C53.1485 85.8489 53.2219 86.1789 53.2219 86.5923V90.3223H52.4319L52.2619 89.7323C52.2219 89.7589 52.1385 89.8089 52.0119 89.8823C51.8852 89.9489 51.7219 90.0223 51.5219 90.1023C51.3285 90.1823 51.1152 90.2489 50.8819 90.3023C50.6552 90.3556 50.4252 90.3823 50.1919 90.3823ZM50.6519 89.6523C50.7519 89.6589 50.8685 89.6489 51.0019 89.6223C51.1419 89.5956 51.2785 89.5656 51.4119 89.5323C51.5519 89.4923 51.6785 89.4523 51.7919 89.4123C51.9119 89.3723 52.0085 89.3389 52.0819 89.3123C52.1619 89.2789 52.2052 89.2589 52.2119 89.2523V87.7123L50.8119 87.7723C50.4652 87.7923 50.2152 87.8789 50.0619 88.0323C49.9152 88.1856 49.8419 88.3856 49.8419 88.6323V88.8723C49.8419 89.0656 49.8819 89.2223 49.9619 89.3423C50.0419 89.4556 50.1419 89.5356 50.2619 89.5823C50.3885 89.6289 50.5185 89.6523 50.6519 89.6523ZM54.5809 90.3223V84.9723H55.3809L55.5809 85.5523C55.8209 85.3789 56.1042 85.2256 56.4309 85.0923C56.7642 84.9523 57.1075 84.8823 57.4609 84.8823C57.8609 84.8823 58.1809 84.9689 58.4209 85.1423C58.6675 85.3089 58.8442 85.5323 58.9509 85.8123C59.0575 86.0923 59.1109 86.3956 59.1109 86.7223V90.3223H58.1109V86.8423C58.1109 86.6289 58.0675 86.4456 57.9809 86.2923C57.9009 86.1323 57.7875 86.0089 57.6409 85.9223C57.4942 85.8356 57.3142 85.7923 57.1009 85.7923C56.9009 85.7923 56.7142 85.8123 56.5409 85.8523C56.3742 85.8923 56.2142 85.9489 56.0609 86.0223C55.9075 86.0889 55.7475 86.1723 55.5809 86.2723V90.3223H54.5809Z" fill="white"/>
<line x1="0.714844" y1="29.5337" x2="342.715" y2="29.5337" stroke="white"/>
<line x1="0.714844" y1="66.6465" x2="342.715" y2="66.6465" stroke="white"/>
<line x1="83.293" y1="0.963867" x2="83.293" y2="115.534" stroke="white"/>
<line x1="124.336" y1="0.963867" x2="124.336" y2="115.534" stroke="white"/>
<line x1="165.375" y1="0.963867" x2="165.375" y2="115.534" stroke="white"/>
<line x1="206.414" y1="0.963867" x2="206.414" y2="115.534" stroke="white"/>
<line x1="247.453" y1="0.963867" x2="247.453" y2="115.534" stroke="white"/>
<line x1="288.496" y1="0.963867" x2="288.496" y2="115.534" stroke="white"/>
<line x1="329.535" y1="0.963867" x2="329.535" y2="115.534" stroke="white"/>
<path d="M99.3148 52.3372C98.9554 52.3372 98.6328 52.2785 98.3468 52.1612C98.0608 52.0365 97.8188 51.8275 97.6208 51.5342C97.4228 51.2335 97.2724 50.8192 97.1698 50.2912C97.0671 49.7632 97.0158 49.0959 97.0158 48.2892C97.0158 47.5339 97.0818 46.8959 97.2138 46.3752C97.3458 45.8472 97.5364 45.4182 97.7858 45.0882C98.0424 44.7509 98.3504 44.5089 98.7098 44.3622C99.0691 44.2082 99.4798 44.1312 99.9418 44.1312C100.264 44.1312 100.613 44.1459 100.987 44.1752C101.361 44.1972 101.691 44.2265 101.977 44.2632V45.1212H100.008C99.3991 45.1212 98.9334 45.3412 98.6108 45.7812C98.2881 46.2212 98.1268 46.8849 98.1268 47.7722C98.3321 47.7355 98.5558 47.7062 98.7978 47.6842C99.0398 47.6622 99.2854 47.6475 99.5348 47.6402C99.7841 47.6329 100.019 47.6292 100.239 47.6292C100.737 47.6292 101.152 47.6915 101.482 47.8162C101.812 47.9409 102.057 48.1315 102.219 48.3882C102.38 48.6449 102.461 48.9749 102.461 49.3782V50.5222C102.461 50.9695 102.376 51.3252 102.208 51.5892C102.039 51.8532 101.808 52.0439 101.515 52.1612C101.229 52.2785 100.906 52.3372 100.547 52.3372H99.3148ZM99.5128 51.3472H100.316C100.514 51.3472 100.69 51.3179 100.844 51.2592C101.005 51.2005 101.13 51.0979 101.218 50.9512C101.313 50.8045 101.361 50.5992 101.361 50.3352V49.5762C101.361 49.2975 101.306 49.0885 101.196 48.9492C101.093 48.8025 100.935 48.7035 100.723 48.6522C100.517 48.6009 100.261 48.5752 99.9528 48.5752H98.1268C98.1268 49.1252 98.1561 49.5835 98.2148 49.9502C98.2734 50.3095 98.3614 50.5919 98.4788 50.7972C98.5961 50.9952 98.7391 51.1382 98.9078 51.2262C99.0838 51.3069 99.2854 51.3472 99.5128 51.3472ZM105.939 52.3372C105.653 52.3372 105.385 52.3115 105.136 52.2602C104.894 52.2015 104.681 52.1099 104.498 51.9852C104.314 51.8532 104.171 51.6809 104.069 51.4682C103.966 51.2555 103.915 50.9915 103.915 50.6762V49.5322C103.915 49.2829 103.962 49.0665 104.058 48.8832C104.16 48.6925 104.285 48.5385 104.432 48.4212C104.586 48.3039 104.747 48.2269 104.916 48.1902C104.688 48.0875 104.512 47.9629 104.388 47.8162C104.27 47.6622 104.19 47.4972 104.146 47.3212C104.102 47.1379 104.08 46.9509 104.08 46.7602V45.8252C104.08 45.4219 104.16 45.0955 104.322 44.8462C104.483 44.5969 104.703 44.4172 104.982 44.3072C105.26 44.1972 105.565 44.1422 105.895 44.1422H107.424C107.768 44.1422 108.069 44.1972 108.326 44.3072C108.582 44.4172 108.784 44.5969 108.931 44.8462C109.077 45.0955 109.151 45.4219 109.151 45.8252V46.7602C109.151 46.8775 109.136 47.0059 109.107 47.1452C109.077 47.2772 109.03 47.4092 108.964 47.5412C108.905 47.6659 108.824 47.7759 108.722 47.8712C108.619 47.9665 108.498 48.0325 108.359 48.0692C108.601 48.1205 108.788 48.2232 108.92 48.3772C109.059 48.5239 109.158 48.6962 109.217 48.8942C109.275 49.0849 109.305 49.2792 109.305 49.4772V50.6762C109.305 51.0942 109.224 51.4242 109.063 51.6662C108.901 51.9009 108.678 52.0732 108.392 52.1832C108.113 52.2859 107.79 52.3372 107.424 52.3372H105.939ZM106.115 51.3912H107.193C107.552 51.3912 107.809 51.3179 107.963 51.1712C108.124 51.0172 108.205 50.7935 108.205 50.5002V49.5762C108.205 49.2462 108.124 49.0079 107.963 48.8612C107.801 48.7145 107.534 48.6412 107.16 48.6412H106.115C106.005 48.6412 105.884 48.6595 105.752 48.6962C105.627 48.7255 105.51 48.7769 105.4 48.8502C105.29 48.9235 105.198 49.0225 105.125 49.1472C105.059 49.2645 105.026 49.4075 105.026 49.5762V50.5002C105.026 50.8229 105.125 51.0539 105.323 51.1932C105.528 51.3252 105.792 51.3912 106.115 51.3912ZM106.115 47.6952H107.149C107.383 47.6952 107.567 47.6512 107.699 47.5632C107.831 47.4679 107.926 47.3505 107.985 47.2112C108.043 47.0645 108.073 46.9179 108.073 46.7712V46.0782C108.073 45.6969 107.996 45.4365 107.842 45.2972C107.695 45.1579 107.479 45.0882 107.193 45.0882H106.115C105.777 45.0882 105.532 45.1615 105.378 45.3082C105.231 45.4549 105.158 45.7115 105.158 46.0782V46.7712C105.158 47.0572 105.235 47.2845 105.389 47.4532C105.543 47.6145 105.785 47.6952 106.115 47.6952Z" fill="white"/>
<path d="M139.616 52.3372C139.256 52.3372 138.934 52.2785 138.648 52.1612C138.362 52.0365 138.12 51.8275 137.922 51.5342C137.724 51.2335 137.573 50.8192 137.471 50.2912C137.368 49.7632 137.317 49.0959 137.317 48.2892C137.317 47.5339 137.383 46.8959 137.515 46.3752C137.647 45.8472 137.837 45.4182 138.087 45.0882C138.343 44.7509 138.651 44.5089 139.011 44.3622C139.37 44.2082 139.781 44.1312 140.243 44.1312C140.565 44.1312 140.914 44.1459 141.288 44.1752C141.662 44.1972 141.992 44.2265 142.278 44.2632V45.1212H140.309C139.7 45.1212 139.234 45.3412 138.912 45.7812C138.589 46.2212 138.428 46.8849 138.428 47.7722C138.633 47.7355 138.857 47.7062 139.099 47.6842C139.341 47.6622 139.586 47.6475 139.836 47.6402C140.085 47.6329 140.32 47.6292 140.54 47.6292C141.038 47.6292 141.453 47.6915 141.783 47.8162C142.113 47.9409 142.358 48.1315 142.52 48.3882C142.681 48.6449 142.762 48.9749 142.762 49.3782V50.5222C142.762 50.9695 142.677 51.3252 142.509 51.5892C142.34 51.8532 142.109 52.0439 141.816 52.1612C141.53 52.2785 141.207 52.3372 140.848 52.3372H139.616ZM139.814 51.3472H140.617C140.815 51.3472 140.991 51.3179 141.145 51.2592C141.306 51.2005 141.431 51.0979 141.519 50.9512C141.614 50.8045 141.662 50.5992 141.662 50.3352V49.5762C141.662 49.2975 141.607 49.0885 141.497 48.9492C141.394 48.8025 141.236 48.7035 141.024 48.6522C140.818 48.6009 140.562 48.5752 140.254 48.5752H138.428C138.428 49.1252 138.457 49.5835 138.516 49.9502C138.574 50.3095 138.662 50.5919 138.78 50.7972C138.897 50.9952 139.04 51.1382 139.209 51.2262C139.385 51.3069 139.586 51.3472 139.814 51.3472ZM146.239 52.3372C145.953 52.3372 145.686 52.3115 145.436 52.2602C145.194 52.2015 144.982 52.1099 144.798 51.9852C144.615 51.8532 144.472 51.6809 144.369 51.4682C144.267 51.2555 144.215 50.9915 144.215 50.6762V49.5322C144.215 49.2829 144.263 49.0665 144.358 48.8832C144.461 48.6925 144.586 48.5385 144.732 48.4212C144.886 48.3039 145.048 48.2269 145.216 48.1902C144.989 48.0875 144.813 47.9629 144.688 47.8162C144.571 47.6622 144.49 47.4972 144.446 47.3212C144.402 47.1379 144.38 46.9509 144.38 46.7602V45.8252C144.38 45.4219 144.461 45.0955 144.622 44.8462C144.784 44.5969 145.004 44.4172 145.282 44.3072C145.561 44.1972 145.865 44.1422 146.195 44.1422H147.724C148.069 44.1422 148.37 44.1972 148.626 44.3072C148.883 44.4172 149.085 44.5969 149.231 44.8462C149.378 45.0955 149.451 45.4219 149.451 45.8252V46.7602C149.451 46.8775 149.437 47.0059 149.407 47.1452C149.378 47.2772 149.33 47.4092 149.264 47.5412C149.206 47.6659 149.125 47.7759 149.022 47.8712C148.92 47.9665 148.799 48.0325 148.659 48.0692C148.901 48.1205 149.088 48.2232 149.22 48.3772C149.36 48.5239 149.459 48.6962 149.517 48.8942C149.576 49.0849 149.605 49.2792 149.605 49.4772V50.6762C149.605 51.0942 149.525 51.4242 149.363 51.6662C149.202 51.9009 148.978 52.0732 148.692 52.1832C148.414 52.2859 148.091 52.3372 147.724 52.3372H146.239ZM146.415 51.3912H147.493C147.853 51.3912 148.109 51.3179 148.263 51.1712C148.425 51.0172 148.505 50.7935 148.505 50.5002V49.5762C148.505 49.2462 148.425 49.0079 148.263 48.8612C148.102 48.7145 147.834 48.6412 147.46 48.6412H146.415C146.305 48.6412 146.184 48.6595 146.052 48.6962C145.928 48.7255 145.81 48.7769 145.7 48.8502C145.59 48.9235 145.499 49.0225 145.425 49.1472C145.359 49.2645 145.326 49.4075 145.326 49.5762V50.5002C145.326 50.8229 145.425 51.0539 145.623 51.1932C145.829 51.3252 146.093 51.3912 146.415 51.3912ZM146.415 47.6952H147.449C147.684 47.6952 147.867 47.6512 147.999 47.5632C148.131 47.4679 148.227 47.3505 148.285 47.2112C148.344 47.0645 148.373 46.9179 148.373 46.7712V46.0782C148.373 45.6969 148.296 45.4365 148.142 45.2972C147.996 45.1579 147.779 45.0882 147.493 45.0882H146.415C146.078 45.0882 145.832 45.1615 145.678 45.3082C145.532 45.4549 145.458 45.7115 145.458 46.0782V46.7712C145.458 47.0572 145.535 47.2845 145.689 47.4532C145.843 47.6145 146.085 47.6952 146.415 47.6952Z" fill="white"/>
<path d="M179.916 52.3372C179.557 52.3372 179.234 52.2785 178.948 52.1612C178.662 52.0365 178.42 51.8275 178.222 51.5342C178.024 51.2335 177.874 50.8192 177.771 50.2912C177.669 49.7632 177.617 49.0959 177.617 48.2892C177.617 47.5339 177.683 46.8959 177.815 46.3752C177.947 45.8472 178.138 45.4182 178.387 45.0882C178.644 44.7509 178.952 44.5089 179.311 44.3622C179.671 44.2082 180.081 44.1312 180.543 44.1312C180.866 44.1312 181.214 44.1459 181.588 44.1752C181.962 44.1972 182.292 44.2265 182.578 44.2632V45.1212H180.609C180.001 45.1212 179.535 45.3412 179.212 45.7812C178.89 46.2212 178.728 46.8849 178.728 47.7722C178.934 47.7355 179.157 47.7062 179.399 47.6842C179.641 47.6622 179.887 47.6475 180.136 47.6402C180.386 47.6329 180.62 47.6292 180.84 47.6292C181.339 47.6292 181.753 47.6915 182.083 47.8162C182.413 47.9409 182.659 48.1315 182.82 48.3882C182.982 48.6449 183.062 48.9749 183.062 49.3782V50.5222C183.062 50.9695 182.978 51.3252 182.809 51.5892C182.641 51.8532 182.41 52.0439 182.116 52.1612C181.83 52.2785 181.508 52.3372 181.148 52.3372H179.916ZM180.114 51.3472H180.917C181.115 51.3472 181.291 51.3179 181.445 51.2592C181.607 51.2005 181.731 51.0979 181.819 50.9512C181.915 50.8045 181.962 50.5992 181.962 50.3352V49.5762C181.962 49.2975 181.907 49.0885 181.797 48.9492C181.695 48.8025 181.537 48.7035 181.324 48.6522C181.119 48.6009 180.862 48.5752 180.554 48.5752H178.728C178.728 49.1252 178.758 49.5835 178.816 49.9502C178.875 50.3095 178.963 50.5919 179.08 50.7972C179.198 50.9952 179.341 51.1382 179.509 51.2262C179.685 51.3069 179.887 51.3472 180.114 51.3472ZM186.54 52.3372C186.254 52.3372 185.986 52.3115 185.737 52.2602C185.495 52.2015 185.282 52.1099 185.099 51.9852C184.916 51.8532 184.773 51.6809 184.67 51.4682C184.567 51.2555 184.516 50.9915 184.516 50.6762V49.5322C184.516 49.2829 184.564 49.0665 184.659 48.8832C184.762 48.6925 184.886 48.5385 185.033 48.4212C185.187 48.3039 185.348 48.2269 185.517 48.1902C185.29 48.0875 185.114 47.9629 184.989 47.8162C184.872 47.6622 184.791 47.4972 184.747 47.3212C184.703 47.1379 184.681 46.9509 184.681 46.7602V45.8252C184.681 45.4219 184.762 45.0955 184.923 44.8462C185.084 44.5969 185.304 44.4172 185.583 44.3072C185.862 44.1972 186.166 44.1422 186.496 44.1422H188.025C188.37 44.1422 188.67 44.1972 188.927 44.3072C189.184 44.4172 189.385 44.5969 189.532 44.8462C189.679 45.0955 189.752 45.4219 189.752 45.8252V46.7602C189.752 46.8775 189.737 47.0059 189.708 47.1452C189.679 47.2772 189.631 47.4092 189.565 47.5412C189.506 47.6659 189.426 47.7759 189.323 47.8712C189.22 47.9665 189.099 48.0325 188.96 48.0692C189.202 48.1205 189.389 48.2232 189.521 48.3772C189.66 48.5239 189.759 48.6962 189.818 48.8942C189.877 49.0849 189.906 49.2792 189.906 49.4772V50.6762C189.906 51.0942 189.825 51.4242 189.664 51.6662C189.503 51.9009 189.279 52.0732 188.993 52.1832C188.714 52.2859 188.392 52.3372 188.025 52.3372H186.54ZM186.716 51.3912H187.794C188.153 51.3912 188.41 51.3179 188.564 51.1712C188.725 51.0172 188.806 50.7935 188.806 50.5002V49.5762C188.806 49.2462 188.725 49.0079 188.564 48.8612C188.403 48.7145 188.135 48.6412 187.761 48.6412H186.716C186.606 48.6412 186.485 48.6595 186.353 48.6962C186.228 48.7255 186.111 48.7769 186.001 48.8502C185.891 48.9235 185.799 49.0225 185.726 49.1472C185.66 49.2645 185.627 49.4075 185.627 49.5762V50.5002C185.627 50.8229 185.726 51.0539 185.924 51.1932C186.129 51.3252 186.393 51.3912 186.716 51.3912ZM186.716 47.6952H187.75C187.985 47.6952 188.168 47.6512 188.3 47.5632C188.432 47.4679 188.527 47.3505 188.586 47.2112C188.645 47.0645 188.674 46.9179 188.674 46.7712V46.0782C188.674 45.6969 188.597 45.4365 188.443 45.2972C188.296 45.1579 188.08 45.0882 187.794 45.0882H186.716C186.379 45.0882 186.133 45.1615 185.979 45.3082C185.832 45.4549 185.759 45.7115 185.759 46.0782V46.7712C185.759 47.0572 185.836 47.2845 185.99 47.4532C186.144 47.6145 186.386 47.6952 186.716 47.6952Z" fill="white"/>
<path d="M222.373 52.3372C222.014 52.3372 221.691 52.2785 221.405 52.1612C221.119 52.0365 220.877 51.8275 220.679 51.5342C220.481 51.2335 220.331 50.8192 220.228 50.2912C220.126 49.7632 220.074 49.0959 220.074 48.2892C220.074 47.5339 220.14 46.8959 220.272 46.3752C220.404 45.8472 220.595 45.4182 220.844 45.0882C221.101 44.7509 221.409 44.5089 221.768 44.3622C222.128 44.2082 222.538 44.1312 223 44.1312C223.323 44.1312 223.671 44.1459 224.045 44.1752C224.419 44.1972 224.749 44.2265 225.035 44.2632V45.1212H223.066C222.458 45.1212 221.992 45.3412 221.669 45.7812C221.347 46.2212 221.185 46.8849 221.185 47.7722C221.391 47.7355 221.614 47.7062 221.856 47.6842C222.098 47.6622 222.344 47.6475 222.593 47.6402C222.843 47.6329 223.077 47.6292 223.297 47.6292C223.796 47.6292 224.21 47.6915 224.54 47.8162C224.87 47.9409 225.116 48.1315 225.277 48.3882C225.439 48.6449 225.519 48.9749 225.519 49.3782V50.5222C225.519 50.9695 225.435 51.3252 225.266 51.5892C225.098 51.8532 224.867 52.0439 224.573 52.1612C224.287 52.2785 223.965 52.3372 223.605 52.3372H222.373ZM222.571 51.3472H223.374C223.572 51.3472 223.748 51.3179 223.902 51.2592C224.064 51.2005 224.188 51.0979 224.276 50.9512C224.372 50.8045 224.419 50.5992 224.419 50.3352V49.5762C224.419 49.2975 224.364 49.0885 224.254 48.9492C224.152 48.8025 223.994 48.7035 223.781 48.6522C223.576 48.6009 223.319 48.5752 223.011 48.5752H221.185C221.185 49.1252 221.215 49.5835 221.273 49.9502C221.332 50.3095 221.42 50.5919 221.537 50.7972C221.655 50.9952 221.798 51.1382 221.966 51.2262C222.142 51.3069 222.344 51.3472 222.571 51.3472ZM228.997 52.3372C228.711 52.3372 228.444 52.3115 228.194 52.2602C227.952 52.2015 227.74 52.1099 227.556 51.9852C227.373 51.8532 227.23 51.6809 227.127 51.4682C227.025 51.2555 226.973 50.9915 226.973 50.6762V49.5322C226.973 49.2829 227.021 49.0665 227.116 48.8832C227.219 48.6925 227.344 48.5385 227.49 48.4212C227.644 48.3039 227.806 48.2269 227.974 48.1902C227.747 48.0875 227.571 47.9629 227.446 47.8162C227.329 47.6622 227.248 47.4972 227.204 47.3212C227.16 47.1379 227.138 46.9509 227.138 46.7602V45.8252C227.138 45.4219 227.219 45.0955 227.38 44.8462C227.542 44.5969 227.762 44.4172 228.04 44.3072C228.319 44.1972 228.623 44.1422 228.953 44.1422H230.482C230.827 44.1422 231.128 44.1972 231.384 44.3072C231.641 44.4172 231.843 44.5969 231.989 44.8462C232.136 45.0955 232.209 45.4219 232.209 45.8252V46.7602C232.209 46.8775 232.195 47.0059 232.165 47.1452C232.136 47.2772 232.088 47.4092 232.022 47.5412C231.964 47.6659 231.883 47.7759 231.78 47.8712C231.678 47.9665 231.557 48.0325 231.417 48.0692C231.659 48.1205 231.846 48.2232 231.978 48.3772C232.118 48.5239 232.217 48.6962 232.275 48.8942C232.334 49.0849 232.363 49.2792 232.363 49.4772V50.6762C232.363 51.0942 232.283 51.4242 232.121 51.6662C231.96 51.9009 231.736 52.0732 231.45 52.1832C231.172 52.2859 230.849 52.3372 230.482 52.3372H228.997ZM229.173 51.3912H230.251C230.611 51.3912 230.867 51.3179 231.021 51.1712C231.183 51.0172 231.263 50.7935 231.263 50.5002V49.5762C231.263 49.2462 231.183 49.0079 231.021 48.8612C230.86 48.7145 230.592 48.6412 230.218 48.6412H229.173C229.063 48.6412 228.942 48.6595 228.81 48.6962C228.686 48.7255 228.568 48.7769 228.458 48.8502C228.348 48.9235 228.257 49.0225 228.183 49.1472C228.117 49.2645 228.084 49.4075 228.084 49.5762V50.5002C228.084 50.8229 228.183 51.0539 228.381 51.1932C228.587 51.3252 228.851 51.3912 229.173 51.3912ZM229.173 47.6952H230.207C230.442 47.6952 230.625 47.6512 230.757 47.5632C230.889 47.4679 230.985 47.3505 231.043 47.2112C231.102 47.0645 231.131 46.9179 231.131 46.7712V46.0782C231.131 45.6969 231.054 45.4365 230.9 45.2972C230.754 45.1579 230.537 45.0882 230.251 45.0882H229.173C228.836 45.0882 228.59 45.1615 228.436 45.3082C228.29 45.4549 228.216 45.7115 228.216 46.0782V46.7712C228.216 47.0572 228.293 47.2845 228.447 47.4532C228.601 47.6145 228.843 47.6952 229.173 47.6952Z" fill="white"/>
<path d="M263.475 52.3372C263.116 52.3372 262.793 52.2785 262.507 52.1612C262.221 52.0365 261.979 51.8275 261.781 51.5342C261.583 51.2335 261.433 50.8192 261.33 50.2912C261.227 49.7632 261.176 49.0959 261.176 48.2892C261.176 47.5339 261.242 46.8959 261.374 46.3752C261.506 45.8472 261.697 45.4182 261.946 45.0882C262.203 44.7509 262.511 44.5089 262.87 44.3622C263.229 44.2082 263.64 44.1312 264.102 44.1312C264.425 44.1312 264.773 44.1459 265.147 44.1752C265.521 44.1972 265.851 44.2265 266.137 44.2632V45.1212H264.168C263.559 45.1212 263.094 45.3412 262.771 45.7812C262.448 46.2212 262.287 46.8849 262.287 47.7722C262.492 47.7355 262.716 47.7062 262.958 47.6842C263.2 47.6622 263.446 47.6475 263.695 47.6402C263.944 47.6329 264.179 47.6292 264.399 47.6292C264.898 47.6292 265.312 47.6915 265.642 47.8162C265.972 47.9409 266.218 48.1315 266.379 48.3882C266.54 48.6449 266.621 48.9749 266.621 49.3782V50.5222C266.621 50.9695 266.537 51.3252 266.368 51.5892C266.199 51.8532 265.968 52.0439 265.675 52.1612C265.389 52.2785 265.066 52.3372 264.707 52.3372H263.475ZM263.673 51.3472H264.476C264.674 51.3472 264.85 51.3179 265.004 51.2592C265.165 51.2005 265.29 51.0979 265.378 50.9512C265.473 50.8045 265.521 50.5992 265.521 50.3352V49.5762C265.521 49.2975 265.466 49.0885 265.356 48.9492C265.253 48.8025 265.096 48.7035 264.883 48.6522C264.678 48.6009 264.421 48.5752 264.113 48.5752H262.287C262.287 49.1252 262.316 49.5835 262.375 49.9502C262.434 50.3095 262.522 50.5919 262.639 50.7972C262.756 50.9952 262.899 51.1382 263.068 51.2262C263.244 51.3069 263.446 51.3472 263.673 51.3472ZM270.099 52.3372C269.813 52.3372 269.545 52.3115 269.296 52.2602C269.054 52.2015 268.841 52.1099 268.658 51.9852C268.474 51.8532 268.331 51.6809 268.229 51.4682C268.126 51.2555 268.075 50.9915 268.075 50.6762V49.5322C268.075 49.2829 268.122 49.0665 268.218 48.8832C268.32 48.6925 268.445 48.5385 268.592 48.4212C268.746 48.3039 268.907 48.2269 269.076 48.1902C268.848 48.0875 268.672 47.9629 268.548 47.8162C268.43 47.6622 268.35 47.4972 268.306 47.3212C268.262 47.1379 268.24 46.9509 268.24 46.7602V45.8252C268.24 45.4219 268.32 45.0955 268.482 44.8462C268.643 44.5969 268.863 44.4172 269.142 44.3072C269.42 44.1972 269.725 44.1422 270.055 44.1422H271.584C271.928 44.1422 272.229 44.1972 272.486 44.3072C272.742 44.4172 272.944 44.5969 273.091 44.8462C273.237 45.0955 273.311 45.4219 273.311 45.8252V46.7602C273.311 46.8775 273.296 47.0059 273.267 47.1452C273.237 47.2772 273.19 47.4092 273.124 47.5412C273.065 47.6659 272.984 47.7759 272.882 47.8712C272.779 47.9665 272.658 48.0325 272.519 48.0692C272.761 48.1205 272.948 48.2232 273.08 48.3772C273.219 48.5239 273.318 48.6962 273.377 48.8942C273.435 49.0849 273.465 49.2792 273.465 49.4772V50.6762C273.465 51.0942 273.384 51.4242 273.223 51.6662C273.061 51.9009 272.838 52.0732 272.552 52.1832C272.273 52.2859 271.95 52.3372 271.584 52.3372H270.099ZM270.275 51.3912H271.353C271.712 51.3912 271.969 51.3179 272.123 51.1712C272.284 51.0172 272.365 50.7935 272.365 50.5002V49.5762C272.365 49.2462 272.284 49.0079 272.123 48.8612C271.961 48.7145 271.694 48.6412 271.32 48.6412H270.275C270.165 48.6412 270.044 48.6595 269.912 48.6962C269.787 48.7255 269.67 48.7769 269.56 48.8502C269.45 48.9235 269.358 49.0225 269.285 49.1472C269.219 49.2645 269.186 49.4075 269.186 49.5762V50.5002C269.186 50.8229 269.285 51.0539 269.483 51.1932C269.688 51.3252 269.952 51.3912 270.275 51.3912ZM270.275 47.6952H271.309C271.543 47.6952 271.727 47.6512 271.859 47.5632C271.991 47.4679 272.086 47.3505 272.145 47.2112C272.203 47.0645 272.233 46.9179 272.233 46.7712V46.0782C272.233 45.6969 272.156 45.4365 272.002 45.2972C271.855 45.1579 271.639 45.0882 271.353 45.0882H270.275C269.937 45.0882 269.692 45.1615 269.538 45.3082C269.391 45.4549 269.318 45.7115 269.318 46.0782V46.7712C269.318 47.0572 269.395 47.2845 269.549 47.4532C269.703 47.6145 269.945 47.6952 270.275 47.6952Z" fill="white"/>
<path d="M304.51 52.3372C304.151 52.3372 303.828 52.2785 303.542 52.1612C303.256 52.0365 303.014 51.8275 302.816 51.5342C302.618 51.2335 302.468 50.8192 302.365 50.2912C302.262 49.7632 302.211 49.0959 302.211 48.2892C302.211 47.5339 302.277 46.8959 302.409 46.3752C302.541 45.8472 302.732 45.4182 302.981 45.0882C303.238 44.7509 303.546 44.5089 303.905 44.3622C304.264 44.2082 304.675 44.1312 305.137 44.1312C305.46 44.1312 305.808 44.1459 306.182 44.1752C306.556 44.1972 306.886 44.2265 307.172 44.2632V45.1212H305.203C304.594 45.1212 304.129 45.3412 303.806 45.7812C303.483 46.2212 303.322 46.8849 303.322 47.7722C303.527 47.7355 303.751 47.7062 303.993 47.6842C304.235 47.6622 304.481 47.6475 304.73 47.6402C304.979 47.6329 305.214 47.6292 305.434 47.6292C305.933 47.6292 306.347 47.6915 306.677 47.8162C307.007 47.9409 307.253 48.1315 307.414 48.3882C307.575 48.6449 307.656 48.9749 307.656 49.3782V50.5222C307.656 50.9695 307.572 51.3252 307.403 51.5892C307.234 51.8532 307.003 52.0439 306.71 52.1612C306.424 52.2785 306.101 52.3372 305.742 52.3372H304.51ZM304.708 51.3472H305.511C305.709 51.3472 305.885 51.3179 306.039 51.2592C306.2 51.2005 306.325 51.0979 306.413 50.9512C306.508 50.8045 306.556 50.5992 306.556 50.3352V49.5762C306.556 49.2975 306.501 49.0885 306.391 48.9492C306.288 48.8025 306.131 48.7035 305.918 48.6522C305.713 48.6009 305.456 48.5752 305.148 48.5752H303.322C303.322 49.1252 303.351 49.5835 303.41 49.9502C303.469 50.3095 303.557 50.5919 303.674 50.7972C303.791 50.9952 303.934 51.1382 304.103 51.2262C304.279 51.3069 304.481 51.3472 304.708 51.3472ZM311.134 52.3372C310.848 52.3372 310.58 52.3115 310.331 52.2602C310.089 52.2015 309.876 52.1099 309.693 51.9852C309.51 51.8532 309.367 51.6809 309.264 51.4682C309.161 51.2555 309.11 50.9915 309.11 50.6762V49.5322C309.11 49.2829 309.158 49.0665 309.253 48.8832C309.356 48.6925 309.48 48.5385 309.627 48.4212C309.781 48.3039 309.942 48.2269 310.111 48.1902C309.884 48.0875 309.708 47.9629 309.583 47.8162C309.466 47.6622 309.385 47.4972 309.341 47.3212C309.297 47.1379 309.275 46.9509 309.275 46.7602V45.8252C309.275 45.4219 309.356 45.0955 309.517 44.8462C309.678 44.5969 309.898 44.4172 310.177 44.3072C310.456 44.1972 310.76 44.1422 311.09 44.1422H312.619C312.964 44.1422 313.264 44.1972 313.521 44.3072C313.778 44.4172 313.979 44.5969 314.126 44.8462C314.273 45.0955 314.346 45.4219 314.346 45.8252V46.7602C314.346 46.8775 314.331 47.0059 314.302 47.1452C314.273 47.2772 314.225 47.4092 314.159 47.5412C314.1 47.6659 314.02 47.7759 313.917 47.8712C313.814 47.9665 313.693 48.0325 313.554 48.0692C313.796 48.1205 313.983 48.2232 314.115 48.3772C314.254 48.5239 314.353 48.6962 314.412 48.8942C314.471 49.0849 314.5 49.2792 314.5 49.4772V50.6762C314.5 51.0942 314.419 51.4242 314.258 51.6662C314.097 51.9009 313.873 52.0732 313.587 52.1832C313.308 52.2859 312.986 52.3372 312.619 52.3372H311.134ZM311.31 51.3912H312.388C312.747 51.3912 313.004 51.3179 313.158 51.1712C313.319 51.0172 313.4 50.7935 313.4 50.5002V49.5762C313.4 49.2462 313.319 49.0079 313.158 48.8612C312.997 48.7145 312.729 48.6412 312.355 48.6412H311.31C311.2 48.6412 311.079 48.6595 310.947 48.6962C310.822 48.7255 310.705 48.7769 310.595 48.8502C310.485 48.9235 310.393 49.0225 310.32 49.1472C310.254 49.2645 310.221 49.4075 310.221 49.5762V50.5002C310.221 50.8229 310.32 51.0539 310.518 51.1932C310.723 51.3252 310.987 51.3912 311.31 51.3912ZM311.31 47.6952H312.344C312.579 47.6952 312.762 47.6512 312.894 47.5632C313.026 47.4679 313.121 47.3505 313.18 47.2112C313.239 47.0645 313.268 46.9179 313.268 46.7712V46.0782C313.268 45.6969 313.191 45.4365 313.037 45.2972C312.89 45.1579 312.674 45.0882 312.388 45.0882H311.31C310.973 45.0882 310.727 45.1615 310.573 45.3082C310.426 45.4549 310.353 45.7115 310.353 46.0782V46.7712C310.353 47.0572 310.43 47.2845 310.584 47.4532C310.738 47.6145 310.98 47.6952 311.31 47.6952Z" fill="white"/>
<path d="M100.547 89.7395V87.7925H96.8068L96.5758 87.2205L99.5018 81.6435H100.635L97.8738 86.8465H100.547V84.8555L100.778 84.0525H101.658V86.8465H102.681V87.6055L101.658 87.7925V89.7395H100.547ZM105.756 89.7835C105.47 89.7835 105.202 89.7578 104.953 89.7065C104.711 89.6478 104.498 89.5562 104.315 89.4315C104.132 89.2995 103.989 89.1272 103.886 88.9145C103.783 88.7018 103.732 88.4378 103.732 88.1225V86.9785C103.732 86.7292 103.78 86.5128 103.875 86.3295C103.978 86.1388 104.102 85.9848 104.249 85.8675C104.403 85.7502 104.564 85.6732 104.733 85.6365C104.506 85.5338 104.33 85.4092 104.205 85.2625C104.088 85.1085 104.007 84.9435 103.963 84.7675C103.919 84.5842 103.897 84.3972 103.897 84.2065V83.2715C103.897 82.8682 103.978 82.5418 104.139 82.2925C104.3 82.0432 104.52 81.8635 104.799 81.7535C105.078 81.6435 105.382 81.5885 105.712 81.5885H107.241C107.586 81.5885 107.886 81.6435 108.143 81.7535C108.4 81.8635 108.601 82.0432 108.748 82.2925C108.895 82.5418 108.968 82.8682 108.968 83.2715V84.2065C108.968 84.3238 108.953 84.4522 108.924 84.5915C108.895 84.7235 108.847 84.8555 108.781 84.9875C108.722 85.1122 108.642 85.2222 108.539 85.3175C108.436 85.4128 108.315 85.4788 108.176 85.5155C108.418 85.5668 108.605 85.6695 108.737 85.8235C108.876 85.9702 108.975 86.1425 109.034 86.3405C109.093 86.5312 109.122 86.7255 109.122 86.9235V88.1225C109.122 88.5405 109.041 88.8705 108.88 89.1125C108.719 89.3472 108.495 89.5195 108.209 89.6295C107.93 89.7322 107.608 89.7835 107.241 89.7835H105.756ZM105.932 88.8375H107.01C107.369 88.8375 107.626 88.7642 107.78 88.6175C107.941 88.4635 108.022 88.2398 108.022 87.9465V87.0225C108.022 86.6925 107.941 86.4542 107.78 86.3075C107.619 86.1608 107.351 86.0875 106.977 86.0875H105.932C105.822 86.0875 105.701 86.1058 105.569 86.1425C105.444 86.1718 105.327 86.2232 105.217 86.2965C105.107 86.3698 105.015 86.4688 104.942 86.5935C104.876 86.7108 104.843 86.8538 104.843 87.0225V87.9465C104.843 88.2692 104.942 88.5002 105.14 88.6395C105.345 88.7715 105.609 88.8375 105.932 88.8375ZM105.932 85.1415H106.966C107.201 85.1415 107.384 85.0975 107.516 85.0095C107.648 84.9142 107.743 84.7968 107.802 84.6575C107.861 84.5108 107.89 84.3642 107.89 84.2175V83.5245C107.89 83.1432 107.813 82.8828 107.659 82.7435C107.512 82.6042 107.296 82.5345 107.01 82.5345H105.932C105.595 82.5345 105.349 82.6078 105.195 82.7545C105.048 82.9012 104.975 83.1578 104.975 83.5245V84.2175C104.975 84.5035 105.052 84.7308 105.206 84.8995C105.36 85.0608 105.602 85.1415 105.932 85.1415Z" fill="white"/>
<path d="M140.848 89.7395V87.7925H137.108L136.877 87.2205L139.803 81.6435H140.936L138.175 86.8465H140.848V84.8555L141.079 84.0525H141.959V86.8465H142.982V87.6055L141.959 87.7925V89.7395H140.848ZM146.057 89.7835C145.771 89.7835 145.503 89.7578 145.254 89.7065C145.012 89.6478 144.799 89.5562 144.616 89.4315C144.432 89.2995 144.289 89.1272 144.187 88.9145C144.084 88.7018 144.033 88.4378 144.033 88.1225V86.9785C144.033 86.7292 144.08 86.5128 144.176 86.3295C144.278 86.1388 144.403 85.9848 144.55 85.8675C144.704 85.7502 144.865 85.6732 145.034 85.6365C144.806 85.5338 144.63 85.4092 144.506 85.2625C144.388 85.1085 144.308 84.9435 144.264 84.7675C144.22 84.5842 144.198 84.3972 144.198 84.2065V83.2715C144.198 82.8682 144.278 82.5418 144.44 82.2925C144.601 82.0432 144.821 81.8635 145.1 81.7535C145.378 81.6435 145.683 81.5885 146.013 81.5885H147.542C147.886 81.5885 148.187 81.6435 148.444 81.7535C148.7 81.8635 148.902 82.0432 149.049 82.2925C149.195 82.5418 149.269 82.8682 149.269 83.2715V84.2065C149.269 84.3238 149.254 84.4522 149.225 84.5915C149.195 84.7235 149.148 84.8555 149.082 84.9875C149.023 85.1122 148.942 85.2222 148.84 85.3175C148.737 85.4128 148.616 85.4788 148.477 85.5155C148.719 85.5668 148.906 85.6695 149.038 85.8235C149.177 85.9702 149.276 86.1425 149.335 86.3405C149.393 86.5312 149.423 86.7255 149.423 86.9235V88.1225C149.423 88.5405 149.342 88.8705 149.181 89.1125C149.019 89.3472 148.796 89.5195 148.51 89.6295C148.231 89.7322 147.908 89.7835 147.542 89.7835H146.057ZM146.233 88.8375H147.311C147.67 88.8375 147.927 88.7642 148.081 88.6175C148.242 88.4635 148.323 88.2398 148.323 87.9465V87.0225C148.323 86.6925 148.242 86.4542 148.081 86.3075C147.919 86.1608 147.652 86.0875 147.278 86.0875H146.233C146.123 86.0875 146.002 86.1058 145.87 86.1425C145.745 86.1718 145.628 86.2232 145.518 86.2965C145.408 86.3698 145.316 86.4688 145.243 86.5935C145.177 86.7108 145.144 86.8538 145.144 87.0225V87.9465C145.144 88.2692 145.243 88.5002 145.441 88.6395C145.646 88.7715 145.91 88.8375 146.233 88.8375ZM146.233 85.1415H147.267C147.501 85.1415 147.685 85.0975 147.817 85.0095C147.949 84.9142 148.044 84.7968 148.103 84.6575C148.161 84.5108 148.191 84.3642 148.191 84.2175V83.5245C148.191 83.1432 148.114 82.8828 147.96 82.7435C147.813 82.6042 147.597 82.5345 147.311 82.5345H146.233C145.895 82.5345 145.65 82.6078 145.496 82.7545C145.349 82.9012 145.276 83.1578 145.276 83.5245V84.2175C145.276 84.5035 145.353 84.7308 145.507 84.8995C145.661 85.0608 145.903 85.1415 146.233 85.1415Z" fill="white"/>
<path d="M181.148 89.7395V87.7925H177.408L177.177 87.2205L180.103 81.6435H181.236L178.475 86.8465H181.148V84.8555L181.379 84.0525H182.259V86.8465H183.282V87.6055L182.259 87.7925V89.7395H181.148ZM186.358 89.7835C186.072 89.7835 185.804 89.7578 185.555 89.7065C185.313 89.6478 185.1 89.5562 184.917 89.4315C184.733 89.2995 184.59 89.1272 184.488 88.9145C184.385 88.7018 184.334 88.4378 184.334 88.1225V86.9785C184.334 86.7292 184.381 86.5128 184.477 86.3295C184.579 86.1388 184.704 85.9848 184.851 85.8675C185.005 85.7502 185.166 85.6732 185.335 85.6365C185.107 85.5338 184.931 85.4092 184.807 85.2625C184.689 85.1085 184.609 84.9435 184.565 84.7675C184.521 84.5842 184.499 84.3972 184.499 84.2065V83.2715C184.499 82.8682 184.579 82.5418 184.741 82.2925C184.902 82.0432 185.122 81.8635 185.401 81.7535C185.679 81.6435 185.984 81.5885 186.314 81.5885H187.843C188.187 81.5885 188.488 81.6435 188.745 81.7535C189.001 81.8635 189.203 82.0432 189.35 82.2925C189.496 82.5418 189.57 82.8682 189.57 83.2715V84.2065C189.57 84.3238 189.555 84.4522 189.526 84.5915C189.496 84.7235 189.449 84.8555 189.383 84.9875C189.324 85.1122 189.243 85.2222 189.141 85.3175C189.038 85.4128 188.917 85.4788 188.778 85.5155C189.02 85.5668 189.207 85.6695 189.339 85.8235C189.478 85.9702 189.577 86.1425 189.636 86.3405C189.694 86.5312 189.724 86.7255 189.724 86.9235V88.1225C189.724 88.5405 189.643 88.8705 189.482 89.1125C189.32 89.3472 189.097 89.5195 188.811 89.6295C188.532 89.7322 188.209 89.7835 187.843 89.7835H186.358ZM186.534 88.8375H187.612C187.971 88.8375 188.228 88.7642 188.382 88.6175C188.543 88.4635 188.624 88.2398 188.624 87.9465V87.0225C188.624 86.6925 188.543 86.4542 188.382 86.3075C188.22 86.1608 187.953 86.0875 187.579 86.0875H186.534C186.424 86.0875 186.303 86.1058 186.171 86.1425C186.046 86.1718 185.929 86.2232 185.819 86.2965C185.709 86.3698 185.617 86.4688 185.544 86.5935C185.478 86.7108 185.445 86.8538 185.445 87.0225V87.9465C185.445 88.2692 185.544 88.5002 185.742 88.6395C185.947 88.7715 186.211 88.8375 186.534 88.8375ZM186.534 85.1415H187.568C187.802 85.1415 187.986 85.0975 188.118 85.0095C188.25 84.9142 188.345 84.7968 188.404 84.6575C188.462 84.5108 188.492 84.3642 188.492 84.2175V83.5245C188.492 83.1432 188.415 82.8828 188.261 82.7435C188.114 82.6042 187.898 82.5345 187.612 82.5345H186.534C186.196 82.5345 185.951 82.6078 185.797 82.7545C185.65 82.9012 185.577 83.1578 185.577 83.5245V84.2175C185.577 84.5035 185.654 84.7308 185.808 84.8995C185.962 85.0608 186.204 85.1415 186.534 85.1415Z" fill="white"/>
<path d="M223.605 89.7395V87.7925H219.865L219.634 87.2205L222.56 81.6435H223.693L220.932 86.8465H223.605V84.8555L223.836 84.0525H224.716V86.8465H225.739V87.6055L224.716 87.7925V89.7395H223.605ZM228.815 89.7835C228.529 89.7835 228.261 89.7578 228.012 89.7065C227.77 89.6478 227.557 89.5562 227.374 89.4315C227.19 89.2995 227.047 89.1272 226.945 88.9145C226.842 88.7018 226.791 88.4378 226.791 88.1225V86.9785C226.791 86.7292 226.838 86.5128 226.934 86.3295C227.036 86.1388 227.161 85.9848 227.308 85.8675C227.462 85.7502 227.623 85.6732 227.792 85.6365C227.564 85.5338 227.388 85.4092 227.264 85.2625C227.146 85.1085 227.066 84.9435 227.022 84.7675C226.978 84.5842 226.956 84.3972 226.956 84.2065V83.2715C226.956 82.8682 227.036 82.5418 227.198 82.2925C227.359 82.0432 227.579 81.8635 227.858 81.7535C228.136 81.6435 228.441 81.5885 228.771 81.5885H230.3C230.644 81.5885 230.945 81.6435 231.202 81.7535C231.458 81.8635 231.66 82.0432 231.807 82.2925C231.953 82.5418 232.027 82.8682 232.027 83.2715V84.2065C232.027 84.3238 232.012 84.4522 231.983 84.5915C231.953 84.7235 231.906 84.8555 231.84 84.9875C231.781 85.1122 231.7 85.2222 231.598 85.3175C231.495 85.4128 231.374 85.4788 231.235 85.5155C231.477 85.5668 231.664 85.6695 231.796 85.8235C231.935 85.9702 232.034 86.1425 232.093 86.3405C232.151 86.5312 232.181 86.7255 232.181 86.9235V88.1225C232.181 88.5405 232.1 88.8705 231.939 89.1125C231.777 89.3472 231.554 89.5195 231.268 89.6295C230.989 89.7322 230.666 89.7835 230.3 89.7835H228.815ZM228.991 88.8375H230.069C230.428 88.8375 230.685 88.7642 230.839 88.6175C231 88.4635 231.081 88.2398 231.081 87.9465V87.0225C231.081 86.6925 231 86.4542 230.839 86.3075C230.677 86.1608 230.41 86.0875 230.036 86.0875H228.991C228.881 86.0875 228.76 86.1058 228.628 86.1425C228.503 86.1718 228.386 86.2232 228.276 86.2965C228.166 86.3698 228.074 86.4688 228.001 86.5935C227.935 86.7108 227.902 86.8538 227.902 87.0225V87.9465C227.902 88.2692 228.001 88.5002 228.199 88.6395C228.404 88.7715 228.668 88.8375 228.991 88.8375ZM228.991 85.1415H230.025C230.259 85.1415 230.443 85.0975 230.575 85.0095C230.707 84.9142 230.802 84.7968 230.861 84.6575C230.919 84.5108 230.949 84.3642 230.949 84.2175V83.5245C230.949 83.1432 230.872 82.8828 230.718 82.7435C230.571 82.6042 230.355 82.5345 230.069 82.5345H228.991C228.653 82.5345 228.408 82.6078 228.254 82.7545C228.107 82.9012 228.034 83.1578 228.034 83.5245V84.2175C228.034 84.5035 228.111 84.7308 228.265 84.8995C228.419 85.0608 228.661 85.1415 228.991 85.1415Z" fill="white"/>
<path d="M265.363 89.7395V87.7925H261.623L261.392 87.2205L264.318 81.6435H265.451L262.69 86.8465H265.363V84.8555L265.594 84.0525H266.474V86.8465H267.497V87.6055L266.474 87.7925V89.7395H265.363ZM270.572 89.7835C270.286 89.7835 270.019 89.7578 269.769 89.7065C269.527 89.6478 269.315 89.5562 269.131 89.4315C268.948 89.2995 268.805 89.1272 268.702 88.9145C268.6 88.7018 268.548 88.4378 268.548 88.1225V86.9785C268.548 86.7292 268.596 86.5128 268.691 86.3295C268.794 86.1388 268.919 85.9848 269.065 85.8675C269.219 85.7502 269.381 85.6732 269.549 85.6365C269.322 85.5338 269.146 85.4092 269.021 85.2625C268.904 85.1085 268.823 84.9435 268.779 84.7675C268.735 84.5842 268.713 84.3972 268.713 84.2065V83.2715C268.713 82.8682 268.794 82.5418 268.955 82.2925C269.117 82.0432 269.337 81.8635 269.615 81.7535C269.894 81.6435 270.198 81.5885 270.528 81.5885H272.057C272.402 81.5885 272.703 81.6435 272.959 81.7535C273.216 81.8635 273.418 82.0432 273.564 82.2925C273.711 82.5418 273.784 82.8682 273.784 83.2715V84.2065C273.784 84.3238 273.77 84.4522 273.74 84.5915C273.711 84.7235 273.663 84.8555 273.597 84.9875C273.539 85.1122 273.458 85.2222 273.355 85.3175C273.253 85.4128 273.132 85.4788 272.992 85.5155C273.234 85.5668 273.421 85.6695 273.553 85.8235C273.693 85.9702 273.792 86.1425 273.85 86.3405C273.909 86.5312 273.938 86.7255 273.938 86.9235V88.1225C273.938 88.5405 273.858 88.8705 273.696 89.1125C273.535 89.3472 273.311 89.5195 273.025 89.6295C272.747 89.7322 272.424 89.7835 272.057 89.7835H270.572ZM270.748 88.8375H271.826C272.186 88.8375 272.442 88.7642 272.596 88.6175C272.758 88.4635 272.838 88.2398 272.838 87.9465V87.0225C272.838 86.6925 272.758 86.4542 272.596 86.3075C272.435 86.1608 272.167 86.0875 271.793 86.0875H270.748C270.638 86.0875 270.517 86.1058 270.385 86.1425C270.261 86.1718 270.143 86.2232 270.033 86.2965C269.923 86.3698 269.832 86.4688 269.758 86.5935C269.692 86.7108 269.659 86.8538 269.659 87.0225V87.9465C269.659 88.2692 269.758 88.5002 269.956 88.6395C270.162 88.7715 270.426 88.8375 270.748 88.8375ZM270.748 85.1415H271.782C272.017 85.1415 272.2 85.0975 272.332 85.0095C272.464 84.9142 272.56 84.7968 272.618 84.6575C272.677 84.5108 272.706 84.3642 272.706 84.2175V83.5245C272.706 83.1432 272.629 82.8828 272.475 82.7435C272.329 82.6042 272.112 82.5345 271.826 82.5345H270.748C270.411 82.5345 270.165 82.6078 270.011 82.7545C269.865 82.9012 269.791 83.1578 269.791 83.5245V84.2175C269.791 84.5035 269.868 84.7308 270.022 84.8995C270.176 85.0608 270.418 85.1415 270.748 85.1415Z" fill="white"/>
<path d="M306.016 89.7395V87.7925H302.276L302.045 87.2205L304.971 81.6435H306.104L303.343 86.8465H306.016V84.8555L306.247 84.0525H307.127V86.8465H308.15V87.6055L307.127 87.7925V89.7395H306.016ZM311.225 89.7835C310.939 89.7835 310.671 89.7578 310.422 89.7065C310.18 89.6478 309.967 89.5562 309.784 89.4315C309.6 89.2995 309.457 89.1272 309.355 88.9145C309.252 88.7018 309.201 88.4378 309.201 88.1225V86.9785C309.201 86.7292 309.248 86.5128 309.344 86.3295C309.446 86.1388 309.571 85.9848 309.718 85.8675C309.872 85.7502 310.033 85.6732 310.202 85.6365C309.974 85.5338 309.798 85.4092 309.674 85.2625C309.556 85.1085 309.476 84.9435 309.432 84.7675C309.388 84.5842 309.366 84.3972 309.366 84.2065V83.2715C309.366 82.8682 309.446 82.5418 309.608 82.2925C309.769 82.0432 309.989 81.8635 310.268 81.7535C310.546 81.6435 310.851 81.5885 311.181 81.5885H312.71C313.054 81.5885 313.355 81.6435 313.612 81.7535C313.868 81.8635 314.07 82.0432 314.217 82.2925C314.363 82.5418 314.437 82.8682 314.437 83.2715V84.2065C314.437 84.3238 314.422 84.4522 314.393 84.5915C314.363 84.7235 314.316 84.8555 314.25 84.9875C314.191 85.1122 314.11 85.2222 314.008 85.3175C313.905 85.4128 313.784 85.4788 313.645 85.5155C313.887 85.5668 314.074 85.6695 314.206 85.8235C314.345 85.9702 314.444 86.1425 314.503 86.3405C314.561 86.5312 314.591 86.7255 314.591 86.9235V88.1225C314.591 88.5405 314.51 88.8705 314.349 89.1125C314.187 89.3472 313.964 89.5195 313.678 89.6295C313.399 89.7322 313.076 89.7835 312.71 89.7835H311.225ZM311.401 88.8375H312.479C312.838 88.8375 313.095 88.7642 313.249 88.6175C313.41 88.4635 313.491 88.2398 313.491 87.9465V87.0225C313.491 86.6925 313.41 86.4542 313.249 86.3075C313.087 86.1608 312.82 86.0875 312.446 86.0875H311.401C311.291 86.0875 311.17 86.1058 311.038 86.1425C310.913 86.1718 310.796 86.2232 310.686 86.2965C310.576 86.3698 310.484 86.4688 310.411 86.5935C310.345 86.7108 310.312 86.8538 310.312 87.0225V87.9465C310.312 88.2692 310.411 88.5002 310.609 88.6395C310.814 88.7715 311.078 88.8375 311.401 88.8375ZM311.401 85.1415H312.435C312.669 85.1415 312.853 85.0975 312.985 85.0095C313.117 84.9142 313.212 84.7968 313.271 84.6575C313.329 84.5108 313.359 84.3642 313.359 84.2175V83.5245C313.359 83.1432 313.282 82.8828 313.128 82.7435C312.981 82.6042 312.765 82.5345 312.479 82.5345H311.401C311.063 82.5345 310.818 82.6078 310.664 82.7545C310.517 82.9012 310.444 83.1578 310.444 83.5245V84.2175C310.444 84.5035 310.521 84.7308 310.675 84.8995C310.829 85.0608 311.071 85.1415 311.401 85.1415Z" fill="white"/>
</svg>
